<?xml version="1.0" encoding="ISO-8859-1" standalone="yes"?>
<!DOCTYPE svg PUBLIC "-//W3C//DTD SVG 20010904//EN"
  "http://www.w3.org/TR/2001/REC-SVG-20010904/DTD/svg10.dtd">
<svg width="2.7169cm" height="3.7388cm" viewBox="3156.8438 1796.2422 385.0703 529.9141" version="1.0"
    xmlns="http://www.w3.org/2000/svg"
    xmlns:xlink="http://www.w3.org/1999/xlink">
<desc>
  Exported by the ArtWorks SVGExport module.
  Source document: SCSI::Develop.$.Develop.Web.Input.cm.Pages.artwork.logo.wheel
</desc>
<g transform="matrix(1 0 0 -1 0 4122.3984)" stroke-miterlimit="16" fill-rule="evenodd" clip-rule="evenodd" stroke-linejoin="bevel" stroke-linecap="butt">
<defs>
<linearGradient id="_Fill0" gradientUnits="userSpaceOnUse" gradientTransform="rotate(-29.9112 3217.8906 1989.25)" x1="3212.2734" y1="2001.2578" x2="3246.7891" y2="1932.3359" spreadMethod="pad">
<stop offset="0" stop-color="#999999"/>
<stop offset="1" stop-color="#000000"/>
</linearGradient>
</defs>
<ellipse transform="rotate(29.9112 3217.8906 1989.25)" cx="3217.8906" cy="1989.25" rx="5.5078" ry="15.3828" fill="url(#_Fill0)"/>
<defs>
<linearGradient id="_Fill1" gradientUnits="userSpaceOnUse" gradientTransform="rotate(-29.9112 3217.8906 1989.25)" x1="3212.2734" y1="2001.2578" x2="3246.7891" y2="1932.3359" spreadMethod="pad">
<stop offset="0" stop-color="#999999"/>
<stop offset="1" stop-color="#000000"/>
</linearGradient>
</defs>
<ellipse transform="rotate(29.9112 3217.8906 1989.25)" cx="3217.8906" cy="1989.25" rx="5.5078" ry="15.3828" fill="url(#_Fill1)"/>
<defs>
<linearGradient id="_Fill2" gradientUnits="userSpaceOnUse" x1="3133.1563" y1="2254.5078" x2="3376" y2="1841.8125" spreadMethod="pad">
<stop offset="0" stop-color="#ffffff"/>
<stop offset="1" stop-color="#808080"/>
</linearGradient>
</defs>
<path d="M3430.4609 1875.4297 3384.6875 1849.1406 C3345.1875 1826.4453 3267.1797 1888.0156 3210.4688 1986.7188 3153.7422 2085.3906 3139.8125 2183.8047 3179.3047 2206.5156 L3225.0859 2232.7891 C3185.5469 2210.0938 3199.5 2111.6797 3256.2344 2013 3312.9375 1914.3203 3390.9375 1852.7422 3430.4609 1875.4297 Z" fill="url(#_Fill2)"/>
<defs>
<linearGradient id="_Fill3" gradientUnits="userSpaceOnUse" x1="3202.7266" y1="2168.2344" x2="3395.2266" y2="1825.2891" spreadMethod="pad">
<stop offset="0" stop-color="#cccccc"/>
<stop offset="1" stop-color="#4c4c4c"/>
</linearGradient>
</defs>
<path d="M3256.2344 2012.9922 C3199.5 2111.6797 3185.5469 2210.0938 3225.0859 2232.7891 3264.6172 2255.5156 3342.6016 2193.9219 3399.3281 2095.25 3456.0391 1996.5469 3469.9844 1898.1641 3430.4531 1875.4297 3390.9219 1852.7422 3312.9297 1914.3203 3256.2344 2012.9922 Z" fill="url(#_Fill3)"/>
<ellipse transform="rotate(29.8864 3365.8828 2076.0234)" cx="3365.8828" cy="2076.0234" rx="70.2578" ry="175.4453" fill="#cccccc"/>
<defs>
<linearGradient id="_Fill4" gradientUnits="userSpaceOnUse" x1="3200.2813" y1="2082.3125" x2="3411.4531" y2="1838.4375" spreadMethod="pad">
<stop offset="0" stop-color="#ffffff"/>
<stop offset="1" stop-color="#000000"/>
</linearGradient>
</defs>
<path d="M3240.3594 2206.7813 C3206.6641 2187.4141 3218.6016 2103.4453 3267.0078 2019.1875 3315.4063 1934.9609 3381.9609 1882.3594 3415.6641 1901.7188 L3453.7969 1923.6328 C3420.1016 1904.2734 3353.5391 1956.875 3305.1328 2041.0938 3256.7266 2125.3438 3244.7813 2209.3125 3278.4844 2228.6719 L3240.3594 2206.7813 Z" fill="url(#_Fill4)"/>
<path d="M3360.1484 2072.3516 C3355.2734 2080.8672 3354.1016 2089.3594 3357.5703 2091.3359 3361.0391 2093.3281 3367.7969 2088.0391 3372.6797 2079.5703 3377.5469 2071.0859 3378.7188 2062.5703 3375.2578 2060.5859 3371.8047 2058.6016 3365.0313 2063.875 3360.1484 2072.3516 Z" fill="none"/>
<g>
<path d="M3374.0859 1850.8516 C3380.0703 1854.1797 3388.2656 1858.7344 3395.0625 1863.0781 3397.1641 1863.5703 3399.2031 1864.1016 3401.2188 1864.6875 3402.1016 1864.9531 3402.9688 1865.2422 3404.2891 1866.1484 3405.3906 1866.9453 3405.5703 1867.3203 3405.1641 1867.3203 3404.9297 1867.3203 3404.4609 1867.2109 3404.0078 1867.0703 3394.6641 1864.4219 3384.4063 1862.4688 3374.2578 1861.5391 3373.0859 1861.4219 3371.6406 1861.2734 3369.4844 1860.0156 3367.3594 1858.8203 3367.5 1858.1797 3367.5859 1857.6641 3368.6328 1853.3125 3369.6016 1849.8359 3371.4766 1847.6875 3371.5547 1847.6094 3371.7188 1847.5 3371.9063 1847.4922 3372.25 1847.4375 3372.9375 1847.6484 3373.8203 1848.1406 3374.8516 1848.7266 3374.8125 1848.9063 3374.8047 1849.2031 3374.5469 1849.6797 3374.3359 1850.2266 3374.0859 1850.8516 3374.0859 1850.8516 3374.0859 1850.8516 3374.0859 1850.8516 Z M3391.8906 1862.3516 C3385.9063 1858.625 3379.1016 1854.7656 3373.75 1851.7891 3373.1016 1853.8359 3372.5859 1856.3359 3371.9766 1859.1719 3372.0078 1859.1953 3372.0625 1859.2109 3372.0938 1859.2344 3378.6719 1859.8359 3385.3281 1860.8984 3391.8906 1862.3516 3391.8906 1862.3516 3391.8906 1862.3516 3391.8906 1862.3516 Z" fill="#000000"/>
<path d="M3346.0234 1859.2969 C3346.6953 1858.9141 3347.4766 1859 3348.9609 1859.8125 3351.4609 1861.2266 3354.4609 1862.9219 3357.5703 1864.7031 3366.7422 1870.0547 3367.1641 1873.6484 3363.9531 1875.2422 3360.9766 1876.7656 3356.5078 1876.0313 3350.6172 1873.0469 3350.5703 1873.1094 3350.5625 1873.1172 3350.5547 1873.1172 3353.1797 1875.5703 3354.0078 1877.5469 3351.5234 1879.1094 3349.1328 1880.6172 3343.7266 1880.9063 3335.4531 1876.1563 3333.2188 1874.8438 3331.1094 1873.6641 3329.2734 1872.6484 3327.9375 1871.8984 3327.8906 1871.3906 3328.5859 1870.8359 3334.5 1866.3594 3340.3438 1862.4688 3346.0234 1859.2969 3346.0234 1859.2969 3346.0234 1859.2969 3346.0234 1859.2969 Z M3332.375 1871.9375 C3334 1872.8594 3335.8047 1873.8672 3337.6563 1874.9453 3342.0781 1877.5 3346.1797 1877.8281 3347.875 1876.7344 3350.0078 1875.375 3348.3984 1872.5938 3344.3906 1870.2969 3342.5156 1869.2031 3340.7188 1868.1875 3339.0859 1867.2578 3336.8359 1868.7734 3334.625 1870.3125 3332.375 1871.9375 3332.375 1871.9375 3332.375 1871.9375 3332.375 1871.9375 Z M3340.7734 1866.1719 C3342.7422 1867.2969 3344.9688 1868.5938 3347.2969 1869.9063 3352.7188 1873.0313 3357.8906 1874.2109 3360.2656 1872.9375 3363.0234 1871.5391 3361.0391 1868.7734 3355.2734 1865.4063 3352.8672 1863.9922 3350.5547 1862.6953 3348.4922 1861.5469 3345.9453 1862.9453 3343.3516 1864.5 3340.7734 1866.1719 3340.7734 1866.1719 3340.7734 1866.1719 3340.7734 1866.1719 Z" fill="#000000"/>
<path d="M3306.0391 1907.3281 C3295.2969 1901.1797 3298.8828 1894.6953 3304.0938 1889.3906 3309.5703 1884.1563 3315.9688 1881 3327.7969 1887.8516 3334.8125 1891.9375 3336.1719 1896.1016 3335.1641 1896.8125 3334.3906 1897.4297 3333.6406 1897.3984 3332.9141 1896.9063 3331.8359 1896.1953 3332.5313 1893.4375 3326.0625 1889.5859 3316.9688 1884.3281 3310.75 1886.6797 3306.4922 1890.7422 3302.3594 1894.7344 3300.3672 1900.9922 3307.9453 1905.3594 3313.75 1908.75 3317.5703 1907.4766 3318.8047 1908.2891 3319.3984 1908.6563 3319.625 1909.4688 3318.8594 1910.1875 3317.875 1911.1875 3312.0625 1910.8438 3306.0391 1907.3281 3306.0391 1907.3281 3306.0391 1907.3281 3306.0391 1907.3281 Z" fill="#000000"/>
<path d="M3280.8281 1915.1563 C3281.5313 1914.3359 3282.125 1914.0391 3283.1016 1914.5547 3284.8906 1915.5234 3287.3359 1916.875 3289.9609 1918.3438 3298.5391 1923.1797 3299.7422 1930.8125 3292.9766 1938.125 3288.0781 1943.8125 3280.1328 1949.0781 3269.8828 1943.3672 3267.2578 1941.8906 3264.7969 1940.5391 3263.0703 1939.6328 3262.1094 1939.1328 3262.2656 1938.5234 3262.9297 1937.5938 3268.8047 1929.7578 3274.7734 1922.2656 3280.8281 1915.1563 3280.8281 1915.1563 3280.8281 1915.1563 3280.8281 1915.1563 Z M3265.7813 1937.6641 C3267.3516 1938.5078 3269.3359 1939.6172 3271.4922 1940.8125 3279.3672 1945.2031 3285.8203 1941.4766 3289.7891 1936.7578 3294.6641 1931.0078 3296.125 1925.1016 3287.875 1920.3984 3285.7422 1919.2266 3283.7344 1918.1406 3282.1328 1917.2578 3276.6328 1923.7656 3271.1563 1930.5547 3265.7813 1937.6641 3265.7813 1937.6641 3265.7813 1937.6641 3265.7813 1937.6641 Z" fill="#000000"/>
<path d="M3247.3984 1970.8984 C3250.1563 1972.4063 3253.2891 1974.1484 3256.1172 1975.7969 3257.1172 1976.3828 3257.3203 1977.3281 3256.8516 1978.0547 3256.3516 1978.7578 3255.3594 1979.0078 3254.4063 1978.4375 3251.5625 1976.7969 3248.4531 1975.0469 3245.7344 1973.5859 3243.4766 1977.0391 3241.2656 1980.5234 3239.0859 1984.0156 3241.9375 1985.5859 3245.1953 1987.4141 3248.1016 1989.0625 3249.0625 1989.625 3249.2656 1990.5859 3248.8203 1991.3281 3248.3516 1992.0391 3247.375 1992.3203 3246.4063 1991.7578 3243.1172 1989.8594 3239.3203 1987.7578 3236.25 1986.1094 3235.0234 1985.4609 3234.9688 1984.7188 3235.5859 1983.6953 3240.9219 1974.9844 3246.4844 1966.4688 3252.2188 1958.2188 3252.8828 1957.2344 3253.6094 1956.9375 3254.875 1957.6328 3258.1328 1959.3906 3262.1328 1961.6484 3265.625 1963.6563 3266.5625 1964.2656 3266.7578 1965.1797 3266.2656 1965.8828 3265.7813 1966.5703 3264.7734 1966.7969 3263.8203 1966.2266 3260.7578 1964.4375 3257.2266 1962.4531 3254.2422 1960.8359 3251.9297 1964.1328 3249.6641 1967.5156 3247.3984 1970.8984 3247.3984 1970.8984 3247.3984 1970.8984 3247.3984 1970.8984 Z" fill="#000000"/>
<path d="M3219.8281 2017.5313 C3222.4453 2018.9531 3225.4922 2020.6094 3228.2188 2022.1328 3229.1875 2022.6953 3229.4688 2023.6719 3229.0469 2024.4219 3228.6641 2025.1953 3227.7344 2025.4922 3226.75 2024.9297 3224.0313 2023.4141 3221 2021.7344 3218.3516 2020.3203 3216.4531 2023.9922 3214.5703 2027.6719 3212.7656 2031.375 3215.7891 2032.9453 3219.2656 2034.8984 3222.2656 2036.5469 3223.2109 2037.1172 3223.4766 2038.0625 3223.1172 2038.8672 3222.7188 2039.6094 3221.8672 2039.9375 3220.9063 2039.4063 3217.4219 2037.4453 3213.25 2035.1484 3209.9375 2033.3906 3209.2031 2032.9375 3208.9297 2032.0156 3209.3672 2031.1406 3213.8125 2022.0625 3218.5313 2013.0391 3223.5781 2004.0938 3224.2734 2002.8594 3225.125 2002.4063 3225.9844 2002.8828 3226.8828 2003.3594 3227.0547 2004.3281 3226.3438 2005.5938 3224.1172 2009.5547 3221.9531 2013.5391 3219.8281 2017.5313 3219.8281 2017.5313 3219.8281 2017.5313 3219.8281 2017.5313 Z" fill="#000000"/>
<path d="M3204.8672 2073.8672 C3203.8672 2073.3203 3203.4375 2072.2734 3203.7188 2071.5156 3204.0391 2070.7344 3204.9609 2070.4844 3205.9531 2071.0234 3207.8125 2072.0625 3209.5 2073.0078 3210.875 2073.7969 3213.1563 2067.6016 3214.0938 2061.0625 3206.9141 2057.0859 3199.2344 2052.875 3194.75 2057.7578 3191.9531 2064.5859 3189.6563 2070.4609 3188.8594 2077.9375 3196.8984 2082.3359 3202.6719 2085.4844 3205.6172 2083.0469 3206.7656 2083.7031 3207.4063 2084.0547 3207.7422 2084.8359 3207.3438 2085.9688 3207.0078 2087.3125 3202.6406 2088.8359 3195.7266 2085.0313 3185.2813 2079.2969 3187.0547 2071.2656 3190.0703 2063.6953 3193.4219 2056.0625 3197.2813 2048.3125 3207.8359 2054.0703 3215.5391 2058.2813 3217.5078 2063.6953 3212.7109 2075.4141 3212.1953 2076.6406 3211.6875 2077.7031 3210.1875 2076.8516 3208.7266 2076.0234 3206.9141 2074.9766 3204.8672 2073.8672 3204.8672 2073.8672 3204.8672 2073.8672 3204.8672 2073.8672 Z" fill="#000000"/>
<path d="M3177.7188 2111.4609 C3182.5625 2114.0156 3190.3984 2118.4063 3195.3984 2121.1953 3196.2656 2117.2031 3197.2266 2113.1563 3198.2969 2109.0703 3198.6172 2107.8281 3199.3125 2107.4375 3200.0781 2107.875 3200.8438 2108.2813 3201.0078 2109.1484 3200.7031 2110.4063 3198.3906 2119.2266 3196.5859 2127.9531 3195.3203 2136.4141 3195.1406 2137.625 3194.6719 2138.0703 3193.8516 2137.6172 3193.0859 2137.1641 3192.6172 2136.2188 3192.8125 2135.0156 3193.3672 2131.3594 3194.0625 2127.6484 3194.8281 2123.9063 3189.7969 2121.125 3181.9219 2116.6641 3177.0156 2114.1172 3176.1563 2117.7734 3175.3594 2121.375 3174.6406 2124.9766 3174.4141 2126.125 3173.7734 2126.4531 3172.9688 2126.0625 3172.1797 2125.6328 3171.9609 2124.8594 3172.1953 2123.6875 3173.8828 2115.4766 3176.0781 2107.0313 3178.6563 2098.3984 3179.0391 2097.1875 3179.5547 2096.6641 3180.2734 2097.0313 3181.0234 2097.4219 3181.3047 2098.3516 3180.9375 2099.5781 3179.7734 2103.5781 3178.6563 2107.5156 3177.7188 2111.4609 3177.7188 2111.4609 3177.7188 2111.4609 3177.7188 2111.4609 Z" fill="#000000"/>
<path d="M3182.5625 2172.7578 C3182.6328 2173.8047 3181.9609 2173.9219 3180.7031 2173.1875 3179.3984 2172.4453 3178.6484 2171.5 3178.5703 2170.4609 3178.1484 2163.2422 3178.3047 2155.6328 3178.9922 2147.7344 3179.0781 2146.6172 3179.7969 2146.3984 3181.0078 2147.0703 3182.1875 2147.7266 3182.8203 2148.7188 3182.7344 2149.8594 3182.0938 2157.8125 3182.0156 2165.4844 3182.5625 2172.7578 3182.5625 2172.7578 3182.5625 2172.7578 3182.5625 2172.7578 Z" fill="#000000"/>
<path d="M3198.0547 2211.8906 C3198.5078 2212.7188 3198.0156 2212.7266 3196.6641 2211.9063 3195.3203 2211.0859 3194.3203 2210.1953 3193.8828 2209.375 3191.5547 2204.7813 3189.6719 2199.8516 3188.1953 2194.6406 3187.6563 2192.75 3186.3594 2190.6406 3182.2422 2188.1953 3177.9297 2185.7031 3177.4688 2186.5703 3176.0781 2185.75 3175.2109 2185.25 3174.5391 2184.5547 3174.3984 2183.9453 3174.2188 2183.1172 3177.0859 2183.5703 3181.9922 2186.4375 3187.6016 2189.7188 3191.2109 2193.7344 3192.1484 2196.9766 3193.6719 2202.2422 3195.6406 2207.2344 3198.0547 2211.8906 3198.0547 2211.8906 3198.0547 2211.8906 3198.0547 2211.8906 Z" fill="#000000"/>
</g>
<defs>
<linearGradient id="_Fill5" gradientUnits="userSpaceOnUse" x1="3197.0625" y1="2356.3828" x2="3503.5156" y2="1829.5313" spreadMethod="pad">
<stop offset="0" stop-color="#ffffff"/>
<stop offset="1" stop-color="#666666"/>
</linearGradient>
</defs>
<path d="M3466.9297 2124.8594 3452.2344 2141.6953 3442.5313 2165.0547 C3440.2344 2170.6016 3435.5156 2177.6016 3431.9922 2180.6875 L3417.1641 2193.7422 3404.6641 2216.875 C3401.6719 2222.3672 3396.5859 2228.4375 3393.2344 2230.4609 L3379.1016 2238.9766 3364.5625 2260.5156 C3361.125 2265.6094 3355.9141 2270.4297 3352.9141 2271.2422 L3340.3047 2274.75 3324.5156 2293.4375 C3320.8125 2297.8359 3315.8125 2301.0938 3313.3828 2300.7031 L3303.0156 2298.9844 3286.9375 2313.7266 C3283.1563 2317.2344 3286.7969 2323.3438 3285.0391 2321.7109 L3268.1016 2311.9688 3254.8828 2325.6406 C3248.9844 2322.6563 3245.7422 2321.1875 3244.5625 2317.9141 L3241.3906 2307.9375 3231.7266 2317.125 C3226.0078 2313.6641 3221.6328 2313.9141 3221.2422 2307.7891 L3221.3594 2295.5625 3215.1875 2294.7656 C3206.5938 2291.4844 3204.6875 2287.0469 3205.3594 2282.5938 L3208.3203 2263.8047 3199.7656 2257.1797 C3197.7656 2255.625 3197.3203 2250.3516 3198.8359 2245.3984 L3205.2031 2224.5469 3200.1641 2212.7578 C3198.9766 2209.9531 3199.8047 2203.5078 3202.0313 2198.375 L3211.4297 2176.6953 3210.1953 2160.375 C3209.8984 2156.5078 3211.9219 2149.2734 3214.7344 2144.25 L3226.6406 2122.9844 3229.2813 2103.1016 C3229.9141 2098.3906 3233.0313 2090.8125 3236.25 2086.1719 L3249.9531 2066.5469 3256.3281 2044.2891 C3257.8203 2038.9766 3261.8594 2031.4688 3265.3594 2027.5078 L3280.0313 2010.6484 3289.7578 1987.3125 C3292.0469 1981.75 3296.7578 1974.7578 3300.2891 1971.6875 L3315.1172 1958.5938 3327.6016 1935.4531 C3330.5703 1930 3335.6797 1923.9375 3339.0234 1921.8828 L3353.1797 1913.375 3367.7344 1891.8281 C3371.1719 1886.7578 3376.3594 1881.9375 3379.3438 1881.1016 L3391.9688 1877.6016 3407.7266 1858.9063 C3411.4609 1854.5 3416.4844 1851.2344 3418.9219 1851.6484 L3429.2656 1853.3672 3445.3281 1838.5859 C3449.1328 1835.125 3453.6484 1833.5859 3455.4297 1835.2188 L3462.8906 1842.0859 3478.3281 1832.1328 C3481.9844 1829.7734 3483.5781 1829.6172 3493.0938 1835.8281 L3490.8984 1844.4219 3504.8047 1839.8281 C3508.0859 1838.7422 3512.9531 1842.4531 3517.4844 1845.4375 L3514.2266 1855.8672 3531.7813 1865.6094 C3531.5078 1870.5859 3527.6094 1865.2969 3526.8984 1869.7578 L3523.9609 1888.5469 3532.5078 1895.1797 C3534.5313 1896.7188 3534.9453 1901.9844 3533.4297 1906.9375 L3527.0781 1927.7891 3532.1094 1939.6172 C3533.3125 1942.3906 3532.4844 1948.8281 3530.2344 1953.9609 L3520.8359 1975.6641 3522.0781 1991.9922 C3522.3828 1995.8359 3520.3438 2003.0547 3517.5313 2008.1016 L3505.6328 2029.3672 3503.0078 2049.2656 C3502.375 2053.9375 3499.25 2061.5547 3496.0078 2066.1719 L3482.3047 2085.7969 3475.9453 2108.0859 C3474.4453 2113.3516 3470.4141 2120.8594 3466.9297 2124.8594 Z" fill="url(#_Fill5)"/>
<defs>
<linearGradient id="_Fill6" gradientUnits="userSpaceOnUse" x1="3063.3281" y1="2584.6563" x2="3610" y2="1834.2109" spreadMethod="pad">
<stop offset="0" stop-color="#fafafa"/>
<stop offset="1" stop-color="#b3b3b3"/>
</linearGradient>
</defs>
<path d="M3474.5625 2129.2188 3459.8672 2146.0781 3450.1484 2169.4375 C3447.8438 2174.9766 3443.1406 2181.9766 3439.6406 2185.0547 L3424.7734 2198.125 3412.2813 2221.25 C3409.3359 2226.7266 3404.2266 2232.7969 3400.875 2234.8359 L3386.7344 2243.375 3372.1875 2264.8984 C3368.7344 2269.9922 3363.5234 2274.8047 3360.5313 2275.625 L3347.9297 2279.125 3332.1563 2297.8281 C3328.4453 2302.2422 3323.4297 2305.5 3320.9844 2305.0781 L3310.6641 2303.3594 3294.5781 2318.0938 C3290.7813 2321.6172 3286.2578 2323.1016 3284.4844 2321.5 L3277.0234 2314.6484 3261.5703 2324.6094 C3257.9375 2326.9531 3254.1641 2326.6406 3253.1875 2323.8984 L3249.0078 2312.3125 3235.0859 2316.9219 C3231.8125 2318 3229.0234 2315.8594 3228.8672 2312.1719 L3228.2422 2296.5156 3216.7031 2295.4766 C3213.9688 2295.2422 3212.2891 2291.4375 3213.0078 2286.9922 L3215.9609 2268.1953 3207.4063 2261.5625 C3205.3828 2259.9844 3204.9609 2254.7266 3206.4844 2249.7734 L3212.8281 2228.9453 3207.7891 2217.125 C3206.5859 2214.3359 3207.4141 2207.8906 3209.6484 2202.75 L3219.0313 2181.0625 3217.8125 2164.75 C3217.5156 2160.8906 3219.5781 2153.6719 3222.3906 2148.6328 L3234.2734 2127.3516 3236.8906 2107.5078 C3237.5078 2102.7969 3240.6719 2095.2031 3243.9219 2090.5625 L3257.5859 2070.9297 3263.9453 2048.6484 C3265.4609 2043.3906 3269.5 2035.8594 3272.9609 2031.8672 L3287.6719 2015.0313 3297.3828 1991.6719 C3299.6797 1986.1328 3304.3594 1979.125 3307.8906 1976.0469 L3322.7734 1962.9844 3335.2656 1939.8516 C3338.2031 1934.3516 3343.3203 1928.2813 3346.6641 1926.2813 L3360.8047 1917.7578 3375.3359 1896.2266 C3378.7813 1891.1172 3384.0078 1886.3359 3386.9922 1885.4922 L3399.5938 1881.9766 3415.3594 1863.2734 C3419.0938 1858.8828 3424.125 1855.6172 3426.5547 1856.0234 L3436.8984 1857.75 3452.9531 1842.9922 C3456.75 1839.4922 3461.2813 1838.0078 3463.0391 1839.6016 L3470.5078 1846.4531 3485.9688 1836.4844 C3489.6094 1834.1484 3493.375 1834.4688 3494.3516 1837.1953 L3498.5234 1848.7891 3512.4141 1844.1797 C3515.7188 1843.1016 3518.4922 1845.2422 3518.6484 1848.9453 L3519.2891 1864.5781 3530.8281 1865.625 C3533.5781 1865.8828 3535.2422 1869.6797 3534.5313 1874.1172 L3531.5859 1892.9219 3540.1328 1899.5313 C3542.1406 1901.1172 3542.5703 1906.3906 3541.0625 1911.3281 L3534.7031 1932.1719 3539.75 1943.9922 C3540.9609 1946.7813 3540.1016 1953.2266 3537.8828 1958.3672 L3528.4766 1980.0391 3529.7031 1996.3594 C3530 2000.2109 3527.9688 2007.4375 3525.1563 2012.4766 L3513.2813 2033.7578 3510.6328 2053.625 C3510.0156 2058.3438 3506.8594 2065.9063 3503.6328 2070.5469 L3489.9453 2090.2031 3483.5781 2112.4609 C3482.0703 2117.7422 3478.0313 2125.25 3474.5625 2129.2188 Z" fill="url(#_Fill6)"/>
<path d="M3482.7422 2086.5703 3469.2813 2078.8594 3460.1719 2098.6172 3467.2656 2100.0547 3482.7422 2086.5703 Z" fill="#000000"/>
<polygon points="3446.7344 2122.5156 3416.2266 2154.6484 3420.2109 2163.7422 3390.0156 2187.5781 3391.0625 2200.1953 3362.8984 2214.2969 3360.9297 2229.7109 3336.4531 2233.2891 3331.5703 2250.5781 3312.2188 2243.4141 3304.75 2261.5938 3291.6016 2244.0938 3281.9219 2262.1016 3275.7969 2235.2969 3264.4844 2252.1016 3265.7188 2217.5469 3253.4688 2232.1328 3261.9453 2191.8281 3249.4609 2203.3984 3264.7344 2159.7109 3252.7188 2167.5156 3273.8828 2122.9844 3263.0703 2126.6328 3288.8906 2083.8203 3279.8438 2083.0938 3308.875 2044.4766 3302.1641 2039.4297 3332.6484 2007.2891 3328.6484 1998.1719 3358.8438 1974.3281 3357.8125 1961.7031 3385.9766 1947.6172 3387.9531 1932.2422 3412.4141 1928.6406 3417.2969 1911.3438 3436.6484 1918.5078 3444.1563 1900.3359 3457.2734 1917.8203 3466.9531 1899.8047 3473.0859 1926.625 3484.3672 1909.8281 3483.1484 1944.3906 3495.4141 1929.7891 3486.9219 1970.0703 3499.4297 1958.5547 3484.1406 2002.2422 3496.1719 1994.3828 3474.9766 2038.9531 3485.8281 2035.2734 3459.9922 2078.1172 3469.0156 2078.8516 3440.0234 2117.4531" fill="#666666"/>
<defs>
<linearGradient id="_Fill7" gradientUnits="userSpaceOnUse" x1="3219.625" y1="2200.2422" x2="3352.0313" y2="1929.3438" spreadMethod="pad">
<stop offset="0" stop-color="#cccccc"/>
<stop offset="1" stop-color="#000000"/>
</linearGradient>
</defs>
<path d="M3281.8047 2261.9375 3296.0859 2269.9531 3289.7891 2243.7734 3275.9766 2235.2266 3281.8047 2261.9375 Z" fill="url(#_Fill7)"/>
<defs>
<linearGradient id="_Fill8" gradientUnits="userSpaceOnUse" x1="3219.625" y1="2200.2422" x2="3352.0313" y2="1929.3438" spreadMethod="pad">
<stop offset="0" stop-color="#cccccc"/>
<stop offset="1" stop-color="#000000"/>
</linearGradient>
</defs>
<path d="M3264.8125 2252.1953 3278.6641 2259.9453 3279.5859 2226.1172 3265.1406 2218.0234 3264.8125 2252.1953 Z" fill="url(#_Fill8)"/>
<defs>
<linearGradient id="_Fill9" gradientUnits="userSpaceOnUse" x1="3219.625" y1="2200.2422" x2="3352.0313" y2="1929.3438" spreadMethod="pad">
<stop offset="0" stop-color="#cccccc"/>
<stop offset="1" stop-color="#000000"/>
</linearGradient>
</defs>
<path d="M3267.8203 2239.8984 3275.9609 2200.2734 3261.5703 2192.7969 3253.8438 2231.7578 3267.8203 2239.8984 Z" fill="url(#_Fill9)"/>
<defs>
<linearGradient id="_Fill10" gradientUnits="userSpaceOnUse" x1="3219.625" y1="2200.2422" x2="3352.0313" y2="1929.3438" spreadMethod="pad">
<stop offset="0" stop-color="#cccccc"/>
<stop offset="1" stop-color="#000000"/>
</linearGradient>
</defs>
<path d="M3249.3594 2202.6719 3263.9219 2210.6172 3278.3672 2168.5078 3264.1875 2160.9922 3249.3594 2202.6719 Z" fill="url(#_Fill10)"/>
<defs>
<linearGradient id="_Fill11" gradientUnits="userSpaceOnUse" x1="3219.625" y1="2200.2422" x2="3352.0313" y2="1929.3438" spreadMethod="pad">
<stop offset="0" stop-color="#cccccc"/>
<stop offset="1" stop-color="#000000"/>
</linearGradient>
</defs>
<path d="M3253.0313 2167.3594 3267.25 2175.125 3287.4375 2131.4766 3273.8594 2123.6328 3253.0313 2167.3594 Z" fill="url(#_Fill11)"/>
<defs>
<linearGradient id="_Fill12" gradientUnits="userSpaceOnUse" x1="3219.625" y1="2200.2422" x2="3352.0313" y2="1929.3438" spreadMethod="pad">
<stop offset="0" stop-color="#cccccc"/>
<stop offset="1" stop-color="#000000"/>
</linearGradient>
</defs>
<path d="M3263.4688 2126.2266 3276.6328 2134.3828 3303 2092.0156 3288.2109 2084.5469 3263.4688 2126.2266 Z" fill="url(#_Fill12)"/>
<defs>
<linearGradient id="_Fill13" gradientUnits="userSpaceOnUse" x1="3363.1172" y1="2001.7422" x2="3457.0234" y2="2046.9063" spreadMethod="pad">
<stop offset="0" stop-color="#cccccc"/>
<stop offset="1" stop-color="#000000"/>
</linearGradient>
</defs>
<path d="M3484.2891 1910.2578 3498.4531 1918.1719 3487.4219 1933.7891 3475.7344 1923.0156 3484.2891 1910.2578 Z" fill="url(#_Fill13)"/>
<defs>
<linearGradient id="_Fill14" gradientUnits="userSpaceOnUse" x1="3363.1172" y1="2001.7422" x2="3457.0234" y2="2046.9063" spreadMethod="pad">
<stop offset="0" stop-color="#cccccc"/>
<stop offset="1" stop-color="#000000"/>
</linearGradient>
</defs>
<path d="M3508.9453 1938.4219 3495.2891 1930.3672 3487.0469 1969.1406 3500.9141 1977.5234 3508.9453 1938.4219 Z" fill="url(#_Fill14)"/>
<defs>
<linearGradient id="_Fill15" gradientUnits="userSpaceOnUse" x1="3363.1172" y1="2001.7422" x2="3457.0234" y2="2046.9063" spreadMethod="pad">
<stop offset="0" stop-color="#cccccc"/>
<stop offset="1" stop-color="#000000"/>
</linearGradient>
</defs>
<path d="M3513.125 1966.875 3497.7734 1957.8516 3490.6641 1976.2969 3503.9609 1984.9531 3513.125 1966.875 Z" fill="url(#_Fill15)"/>
<defs>
<linearGradient id="_Fill16" gradientUnits="userSpaceOnUse" x1="3363.1172" y1="2001.7422" x2="3457.0234" y2="2046.9063" spreadMethod="pad">
<stop offset="0" stop-color="#cccccc"/>
<stop offset="1" stop-color="#000000"/>
</linearGradient>
</defs>
<path d="M3510.0313 2002.6875 3495.4453 1994.1172 3490.6094 2013.4688 3499.3984 2017.2891 3510.0313 2002.6875 Z" fill="url(#_Fill16)"/>
<defs>
<linearGradient id="_Fill17" gradientUnits="userSpaceOnUse" x1="3363.1172" y1="2001.7422" x2="3457.0234" y2="2046.9063" spreadMethod="pad">
<stop offset="0" stop-color="#cccccc"/>
<stop offset="1" stop-color="#000000"/>
</linearGradient>
</defs>
<path d="M3499.9141 2043.6016 3489.7188 2037.9766 3482.5078 2049.8672 3490.6172 2054.1172 3499.9141 2043.6016 Z" fill="url(#_Fill17)"/>
<defs>
<linearGradient id="_Fill18" gradientUnits="userSpaceOnUse" x1="3219.625" y1="2200.2422" x2="3352.0313" y2="1929.3438" spreadMethod="pad">
<stop offset="0" stop-color="#cccccc"/>
<stop offset="1" stop-color="#000000"/>
</linearGradient>
</defs>
<path d="M3318.8359 2269.6094 3304.6016 2261.8359 3293.2422 2246.5703 3301.5938 2246.8984 3318.8359 2269.6094 Z" fill="url(#_Fill18)"/>
<polygon points="3460.6172 2130.4922 3430.1328 2162.6406 3434.125 2171.7422 3403.9219 2195.5625 3404.9609 2208.1953 3376.8125 2222.2969 3374.8203 2237.6953 3350.3828 2241.2969 3345.4766 2258.5703 3326.1328 2251.4141 3318.6328 2269.5859 3305.5156 2252.1016 3295.8516 2270.1172 3289.7031 2243.2969 3278.4141 2260.0938 3279.6406 2225.5313 3267.3594 2240.1172 3275.875 2199.8359 3263.3828 2211.375 3278.6563 2167.6797 3266.6172 2175.5313 3287.7891 2130.9609 3276.9453 2134.6406 3302.7969 2091.8047 3293.75 2091.0859 3322.7813 2052.4766 3316.0391 2047.4063 3346.5391 2015.2578 3342.5391 2006.1484 3372.7422 1982.3359 3371.7188 1969.7031 3399.8672 1955.6094 3401.8438 1940.2109 3426.3047 1936.6094 3431.2031 1919.3203 3450.5469 1926.5078 3458.0391 1908.3125 3471.1875 1925.8203 3480.8438 1907.8203 3486.9766 1934.6094 3498.2969 1917.8203 3497.0703 1952.3672 3509.3047 1937.7813 3500.8281 1978.0938 3513.3281 1966.5313 3498.0469 2010.2188 3510.0703 2002.3594 3488.8984 2046.9453 3499.7188 2043.2578 3473.8984 2086.1016 3482.9375 2086.8281 3453.9375 2125.4219" fill="#808080"/>
<path d="M3380.3984 2083.9531 C3373.5 2095.9375 3371.8047 2107.9141 3376.6016 2110.6484 3381.3828 2113.3984 3390.8438 2105.9375 3397.7422 2093.9453 3404.6172 2081.9609 3406.3125 2070.0234 3401.5078 2067.2734 3396.7344 2064.5234 3387.2656 2072 3380.3984 2083.9531 Z" fill="#cccccc"/>
<ellipse transform="rotate(29.881 3389.0234 2089.3047)" cx="3389.0234" cy="2089.3047" rx="70.3672" ry="175.9219" fill="none"/>
<path d="M3312.1406 2213.0469 C3308.8594 2218.7422 3308.0391 2224.4219 3310.3281 2225.7422 3312.6016 2227.0547 3317.1016 2223.4844 3320.3672 2217.7813 3323.6563 2212.0781 3324.4844 2206.3984 3322.1797 2205.1016 3319.9063 2203.7734 3315.3906 2207.3516 3312.1406 2213.0469 Z" fill="none"/>
<path d="M3303.5859 2199.7344 C3299.8516 2204.9531 3297.9531 2211.3203 3299.3906 2214 3300.8125 2216.6484 3304.9766 2214.5781 3308.7266 2209.3594 3312.4453 2204.1641 3314.3125 2197.7578 3312.9141 2195.1328 3311.4922 2192.4609 3307.3125 2194.5313 3303.5859 2199.7344 Z" fill="none"/>
<path d="M3300.1328 2179.8594 C3296.1641 2184.2656 3293.3281 2190.9531 3293.7969 2194.8047 3294.2813 2198.6406 3297.8672 2198.1797 3301.8281 2193.7734 3305.7969 2189.3672 3308.625 2182.6953 3308.1719 2178.8359 3307.7109 2174.9922 3304.0938 2175.4453 3300.1328 2179.8594 Z" fill="none"/>
<path d="M3302.0313 2154.4844 C3298.0547 2157.8125 3294.4375 2164.4375 3293.9453 2169.2344 3293.4219 2174.0313 3296.2188 2175.2188 3300.1797 2171.875 3304.1484 2168.5234 3307.7813 2161.9297 3308.2813 2157.1328 3308.7734 2152.3281 3305.9844 2151.1719 3302.0313 2154.4844 Z" fill="none"/>
<path d="M3309.6953 2123.375 C3305.9922 2125.3906 3301.8047 2131.4375 3300.2891 2136.9453 3298.7578 2142.4453 3300.5313 2145.2813 3304.2344 2143.2969 3307.9453 2141.2969 3312.1484 2135.2266 3313.6563 2129.7109 3315.1563 2124.2422 3313.4141 2121.375 3309.6953 2123.375 Z" fill="none"/>
<path d="M3321.8359 2091.875 C3318.6328 2092.4844 3314.1016 2097.6641 3311.7422 2103.4922 3309.3516 2109.3203 3310.0469 2113.5313 3313.2891 2112.9453 3316.5 2112.3594 3321.0313 2107.1406 3323.375 2101.3281 3325.75 2095.4922 3325.0625 2091.2813 3321.8359 2091.875 Z" fill="none"/>
<path d="M3337.9844 2060.2344 C3335.4141 2059.4219 3330.8516 2063.4297 3327.7656 2069.2031 3324.7109 2074.9844 3324.3047 2080.375 3326.8203 2081.1875 3329.3906 2082.0313 3333.9375 2078.0234 3337 2072.2344 3340.0859 2066.4219 3340.5156 2061.0703 3337.9844 2060.2344 Z" fill="none"/>
<path d="M3357.1641 2030.3203 C3355.4375 2028.1172 3351.125 2030.6797 3347.5234 2036.1094 3343.9297 2041.5078 3342.4063 2047.6953 3344.1094 2049.9141 3345.8438 2052.1328 3350.1641 2049.5469 3353.75 2044.1328 3357.3594 2038.6953 3358.8906 2032.5391 3357.1641 2030.3203 Z" fill="none"/>
<path d="M3379.5078 2002.5234 C3378.7734 1998.9922 3375 1999.9063 3371.0781 2004.5703 3367.1563 2009.2266 3364.5703 2015.875 3365.3047 2019.4063 3366.0313 2022.9453 3369.8203 2022.0313 3373.75 2017.3594 3377.6797 2012.6953 3380.2422 2006.0469 3379.5078 2002.5234 Z" fill="none"/>
<path d="M3401.2266 1981.6406 C3401.4688 1977.0469 3398.4297 1976.2969 3394.4453 1979.9844 3390.4531 1983.6328 3387.0391 1990.3047 3386.8203 1994.8594 3386.5703 1999.4219 3389.6094 2000.1406 3393.5859 1996.5 3397.5781 1992.8438 3401.0078 1986.1641 3401.2266 1981.6406 Z" fill="none"/>
<path d="M3422.2109 1967.0859 C3423.3906 1961.8203 3421.2969 1959.4766 3417.4766 1961.9141 3413.6797 1964.3594 3409.6094 1970.6484 3408.4219 1975.9609 3407.1953 1981.2734 3409.3359 1983.6172 3413.1328 1981.1719 3416.9531 1978.7344 3421 1972.4219 3422.2109 1967.0859 Z" fill="none"/>
<path d="M3441.1641 1959.9766 C3443.2578 1954.2266 3442.1797 1950.4297 3438.7891 1951.5156 3435.3828 1952.6016 3430.9297 1958.1172 3428.8438 1963.8906 3426.75 1969.625 3427.8203 1973.4063 3431.2344 1972.3516 3434.6172 1971.25 3439.0859 1965.7188 3441.1641 1959.9766 Z" fill="none"/>
<path d="M3456.9688 1960.5547 C3459.8516 1954.6953 3459.8906 1949.6953 3457.1016 1949.3438 3454.3125 1948.9922 3449.7266 1953.4453 3446.8828 1959.2813 3444.0391 1965.1094 3443.9844 1970.1406 3446.7734 1970.4922 3449.5781 1970.8438 3454.1406 1966.375 3456.9688 1960.5547 Z" fill="none"/>
<path d="M3475.5547 1982.7813 C3479.3594 1977.7578 3481.4922 1971.2344 3480.3047 1968.2656 3479.1016 1965.2969 3475.0703 1966.9844 3471.2266 1972 3467.4297 1977.0469 3465.2891 1983.5313 3466.5156 1986.4922 3467.6875 1989.4766 3471.7266 1987.8047 3475.5547 1982.7813 Z" fill="none"/>
<path d="M3477.6797 2003.625 C3481.6563 1999.4297 3484.6875 1992.7422 3484.4531 1988.6484 3484.2031 1984.6016 3480.7656 1984.6328 3476.7734 1988.8281 3472.7969 1993.0234 3469.7578 1999.7266 3470 2003.7969 3470.25 2007.8828 3473.6719 2007.8125 3477.6797 2003.625 Z" fill="none"/>
<path d="M3474.3359 2031.0938 C3478.2656 2028.0391 3482.0703 2021.5313 3482.8281 2016.5547 3483.6094 2011.5391 3481.0391 2009.9219 3477.125 2012.9375 3473.2109 2015.9688 3469.3984 2022.4609 3468.6484 2027.4766 3467.875 2032.4766 3470.4297 2034.0859 3474.3359 2031.0938 Z" fill="none"/>
<path d="M3466 2060.8906 C3469.6406 2059.1563 3473.9297 2053.2422 3475.6094 2047.6016 3477.2891 2042.0547 3475.7344 2038.9219 3472.1094 2040.6563 3468.5 2042.3516 3464.1875 2048.3125 3462.5 2053.8594 3460.8281 2059.4609 3462.3594 2062.6172 3466 2060.8906 Z" fill="none"/>
<path d="M3452.9766 2092.5391 C3456.0938 2092.25 3460.6328 2087.2813 3463.1641 2081.4219 3465.6953 2075.5938 3465.2031 2071.1016 3462.1172 2071.4297 3459.0234 2071.7422 3454.4688 2076.7109 3451.9531 2082.5547 3449.4141 2088.3906 3449.8828 2092.8594 3452.9766 2092.5391 Z" fill="none"/>
<path d="M3438.9297 2119.2969 C3441.4688 2120.1953 3446 2116.2422 3449.1328 2110.4688 3452.2188 2104.6797 3452.6797 2099.2734 3450.1875 2098.375 3447.6797 2097.4688 3443.1172 2101.4297 3440.0156 2107.2109 3436.9219 2112.9766 3436.4609 2118.3984 3438.9297 2119.2969 Z" fill="none"/>
<path d="M3421.0938 2147.0078 C3422.8672 2149.2109 3427.1719 2146.5781 3430.7734 2141.1563 3434.3516 2135.7266 3435.8516 2129.5391 3434.1094 2127.3594 3432.3359 2125.1953 3428.0156 2127.8281 3424.4375 2133.2422 3420.8594 2138.6875 3419.3672 2144.8594 3421.0938 2147.0078 Z" fill="none"/>
<path d="M3400.7109 2172.8047 C3401.5859 2176.1875 3405.3906 2175.0703 3409.3359 2170.3281 3413.2266 2165.5625 3415.6875 2158.9531 3414.8516 2155.5625 3413.9844 2152.1484 3410.1172 2153.2656 3406.2344 2158.0234 3402.3281 2162.7656 3399.8438 2169.4141 3400.7109 2172.8047 Z" fill="none"/>
<path d="M3380.2188 2193.3516 C3380.125 2197.75 3383.3125 2198.2188 3387.2969 2194.3359 3391.3047 2190.4844 3394.5859 2183.8047 3394.6641 2179.4063 3394.7109 2175.0078 3391.5313 2174.5625 3387.5391 2178.4219 3383.5625 2182.2734 3380.2422 2188.9609 3380.2188 2193.3516 Z" fill="none"/>
<path d="M3360.3047 2208.2578 C3359.3203 2213.4297 3361.6875 2215.3828 3365.5625 2212.6172 3369.4219 2209.8672 3373.3438 2203.4531 3374.3359 2198.2969 3375.2969 2193.1328 3372.9531 2191.1875 3369.0938 2193.9297 3365.2031 2196.6875 3361.2891 2203.1016 3360.3047 2208.2578 Z" fill="none"/>
<path d="M3340.6016 2217.2656 C3338.6875 2222.9688 3340.0234 2226.4219 3343.5156 2225.0234 3347.0234 2223.625 3351.4219 2217.8828 3353.3359 2212.2109 3355.2031 2206.5391 3353.8906 2203.0547 3350.3906 2204.4453 3346.8594 2205.8672 3342.5 2211.5938 3340.6016 2217.2656 Z" fill="none"/>
<path d="M3324.8047 2218.6641 C3322.1484 2224.5078 3322.4375 2229.1875 3325.4219 2229.1406 3328.4141 2229.0625 3332.9531 2224.2734 3335.625 2218.4531 3338.25 2212.5859 3337.9844 2207.8906 3334.9922 2207.9609 3332.0156 2208.0313 3327.4375 2212.7969 3324.8047 2218.6641 Z" fill="none"/>
<path d="M3468.6719 1968.2344 C3472.1094 1962.6406 3473.2422 1956.7031 3471.2109 1954.9766 3469.1563 1953.2656 3464.7188 1956.3984 3461.2813 1961.9844 3457.8672 1967.5625 3456.7344 1973.4922 3458.7656 1975.2109 3460.8125 1976.9375 3465.25 1973.8047 3468.6719 1968.2344 Z" fill="none"/>
<defs>
<linearGradient id="_Fill19" gradientUnits="userSpaceOnUse" x1="3400.2422" y1="2080.9297" x2="3380.4063" y2="2100.8516" spreadMethod="pad">
<stop offset="0" stop-color="#999999"/>
<stop offset="1" stop-color="#000000"/>
</linearGradient>
</defs>
<path d="M3382.8594 2085.3984 C3377.9531 2093.9453 3376.7109 2102.4922 3380.1406 2104.4453 3383.5859 2106.4219 3390.3359 2101.1016 3395.2578 2092.5078 3400.2031 2083.9531 3401.375 2075.4297 3397.9688 2073.4688 3394.5391 2071.5 3387.7891 2076.8438 3382.8594 2085.3984 Z" fill="url(#_Fill19)"/>
<g>
<path d="M3433.3359 2126.5859 C3430.7891 2125.7656 3426.25 2129.7656 3423.1719 2135.5547 3420.0938 2141.3281 3419.6641 2146.7266 3422.2109 2147.5547 3424.7422 2148.3828 3429.3047 2144.3594 3432.4063 2138.5859 3435.4688 2132.7813 3435.8906 2127.4141 3433.3359 2126.5859 Z" fill="#ffcc4f"/>
<defs>
<linearGradient id="_Fill20" gradientUnits="userSpaceOnUse" x1="3428.5234" y1="2144.9453" x2="3444.6016" y2="2137.5781" spreadMethod="pad">
<stop offset="0" stop-color="#fff5e1"/>
<stop offset="1" stop-color="#c08200"/>
</linearGradient>
</defs>
<path d="M3443.1172 2136.8047 3431.5156 2130.1172 C3430.0469 2129.7031 3427.2031 2132.4844 3425.1719 2136.3125 3423.0781 2140.1641 3422.6016 2143.6094 3424.0547 2144.0078 L3435.2188 2150.3984 C3439.0625 2152.6016 3443.8828 2151.3594 3446.0859 2147.4922 3448.2969 2143.6484 3446.9375 2139.0313 3443.1172 2136.8047 Z" fill="url(#_Fill20)"/>
<path d="M3441.9297 2138.3906 3431.0391 2132.1172 C3429.7188 2131.7422 3427.3438 2134.5234 3425.9063 2137.2969 3424.8438 2139.6719 3424.7422 2139.7266 3424.4688 2141.8047" fill="none"/>
</g>
<g>
<path d="M3413.625 2153.7188 C3411.0703 2152.9063 3406.5313 2156.9141 3403.4531 2162.6953 3400.3828 2168.4766 3399.9453 2173.8516 3402.4688 2174.6797 3405.0391 2175.5313 3409.6016 2171.5156 3412.6875 2165.7109 3415.75 2159.9219 3416.1563 2154.5469 3413.625 2153.7188 Z" fill="#ffcc4f"/>
<defs>
<linearGradient id="_Fill21" gradientUnits="userSpaceOnUse" x1="3408.7969" y1="2172.0859" x2="3424.875" y2="2164.7109" spreadMethod="pad">
<stop offset="0" stop-color="#fff5e1"/>
<stop offset="1" stop-color="#c08200"/>
</linearGradient>
</defs>
<path d="M3423.3828 2163.9688 3411.7969 2157.2734 C3410.3203 2156.8672 3407.4766 2159.6328 3405.4141 2163.4688 3403.3672 2167.2891 3402.8594 2170.75 3404.3281 2171.1641 L3415.5 2177.5391 C3419.3672 2179.7422 3424.1484 2178.5 3426.3672 2174.6406 3428.5625 2170.8125 3427.2109 2166.1797 3423.3828 2163.9688 Z" fill="url(#_Fill21)"/>
<path d="M3422.2109 2165.5469 3411.2969 2159.2656 C3410.0078 2158.875 3407.625 2161.6875 3406.1719 2164.4453 3405.125 2166.8047 3405.0391 2166.8828 3404.75 2168.9453" fill="none"/>
</g>
<g>
<path d="M3393 2176.0625 C3390.4375 2175.2422 3385.9063 2179.2734 3382.7969 2185.0391 3379.7344 2190.8281 3379.3047 2196.2109 3381.8438 2197.0313 3384.3984 2197.8672 3388.9844 2193.8516 3392.0234 2188.0781 3395.0938 2182.2734 3395.5313 2176.9063 3393 2176.0625 Z" fill="#ffcc4f"/>
<defs>
<linearGradient id="_Fill22" gradientUnits="userSpaceOnUse" x1="3388.1484" y1="2194.4375" x2="3404.2578" y2="2187.0625" spreadMethod="pad">
<stop offset="0" stop-color="#fff5e1"/>
<stop offset="1" stop-color="#c08200"/>
</linearGradient>
</defs>
<path d="M3402.7344 2186.3281 3391.1563 2179.6328 C3389.6797 2179.2266 3386.8516 2181.9766 3384.7891 2185.8203 3382.7188 2189.6406 3382.2266 2193.0781 3383.6875 2193.5078 L3394.8672 2199.8906 C3398.7188 2202.0938 3403.5156 2200.8359 3405.7344 2197 3407.9531 2193.1406 3406.5859 2188.5078 3402.7344 2186.3281 Z" fill="url(#_Fill22)"/>
<path d="M3401.5938 2187.9063 3390.6563 2181.6016 C3389.3672 2181.2422 3386.9922 2184.0078 3385.5625 2186.7891 3384.5 2189.1719 3384.3984 2189.2266 3384.1172 2191.2969" fill="none"/>
</g>
<g>
<path d="M3372.8984 2192.9453 C3370.3594 2192.1016 3365.7813 2196.125 3362.7188 2201.9063 3359.6563 2207.7031 3359.2344 2213.0781 3361.7656 2213.8984 3364.3203 2214.7578 3368.8828 2210.7188 3371.9453 2204.9375 3375.0547 2199.1406 3375.4531 2193.7656 3372.8984 2192.9453 Z" fill="#ffcc4f"/>
<defs>
<linearGradient id="_Fill23" gradientUnits="userSpaceOnUse" x1="3368.0938" y1="2211.3047" x2="3384.1875" y2="2203.9219" spreadMethod="pad">
<stop offset="0" stop-color="#fff5e1"/>
<stop offset="1" stop-color="#c08200"/>
</linearGradient>
</defs>
<path d="M3382.6797 2203.1797 3371.1016 2196.5 C3369.625 2196.0625 3366.7813 2198.8359 3364.6953 2202.6875 3362.6641 2206.5156 3362.1641 2209.9531 3363.6016 2210.3672 L3374.8047 2216.7422 C3378.6719 2218.9609 3383.4375 2217.7266 3385.6563 2213.8594 3387.8672 2210.0156 3386.5078 2205.3906 3382.6797 2203.1797 Z" fill="url(#_Fill23)"/>
<path d="M3381.5234 2204.7578 3370.5781 2198.4766 C3369.3047 2198.1094 3366.9141 2200.8828 3365.4766 2203.6641 3364.4063 2206.0391 3364.3203 2206.0859 3364.0469 2208.1719" fill="none"/>
</g>
<g>
<path d="M3450.3516 2098.3359 C3447.8047 2097.4844 3443.2578 2101.5 3440.1563 2107.2891 3437.1016 2113.0938 3436.6563 2118.4609 3439.2031 2119.2969 3441.75 2120.1172 3446.3281 2116.1094 3449.375 2110.3359 3452.4766 2104.5469 3452.9063 2099.1563 3450.3516 2098.3359 Z" fill="#ffcc4f"/>
<defs>
<linearGradient id="_Fill24" gradientUnits="userSpaceOnUse" x1="3445.5156" y1="2116.6641" x2="3461.5938" y2="2109.3203" spreadMethod="pad">
<stop offset="0" stop-color="#fff5e1"/>
<stop offset="1" stop-color="#c08200"/>
</linearGradient>
</defs>
<path d="M3460.1094 2108.5469 3448.5156 2101.8672 C3447.0547 2101.4688 3444.2109 2104.2422 3442.1406 2108.0625 3440.0781 2111.8984 3439.6016 2115.3359 3441.0547 2115.7578 L3452.2344 2122.1484 C3456.0938 2124.3438 3460.8828 2123.0938 3463.0938 2119.2266 3465.2891 2115.3984 3463.9531 2110.7734 3460.1094 2108.5469 Z" fill="url(#_Fill24)"/>
<path d="M3458.9297 2110.1406 3448.0156 2103.8438 C3446.7422 2103.4766 3444.3359 2106.2734 3442.9141 2109.0469 3441.8516 2111.4141 3441.75 2111.4766 3441.4766 2113.5391" fill="none"/>
</g>
<g>
<path d="M3474.6797 2040.5234 C3472.1328 2039.7188 3467.5703 2043.7422 3464.5078 2049.5391 3461.4297 2055.2969 3461.0156 2060.6641 3463.5625 2061.4922 3466.1094 2062.3438 3470.6719 2058.3438 3473.7344 2052.5313 3476.8047 2046.7344 3477.2344 2041.3828 3474.6797 2040.5234 Z" fill="#ffcc4f"/>
<defs>
<linearGradient id="_Fill25" gradientUnits="userSpaceOnUse" x1="3469.8672" y1="2058.9063" x2="3485.9688" y2="2051.5469" spreadMethod="pad">
<stop offset="0" stop-color="#fff5e1"/>
<stop offset="1" stop-color="#c08200"/>
</linearGradient>
</defs>
<path d="M3484.4375 2050.7969 3472.8438 2044.1172 C3471.3984 2043.7031 3468.5547 2046.4609 3466.4922 2050.2891 3464.4297 2054.1016 3463.9531 2057.5547 3465.3906 2057.9766 L3476.5859 2064.3828 C3480.4297 2066.5703 3485.2344 2065.3281 3487.4375 2061.4688 3489.6641 2057.625 3488.2734 2052.9922 3484.4375 2050.7969 Z" fill="url(#_Fill25)"/>
<path d="M3483.2891 2052.3672 3472.3516 2046.1016 C3471.0703 2045.6953 3468.6875 2048.4844 3467.25 2051.2656 3466.1875 2053.625 3466.0938 2053.7031 3465.7969 2055.7734" fill="none"/>
</g>
<g>
<path d="M3481.5781 2011.5391 C3479.0469 2010.6953 3474.4844 2014.7188 3471.4063 2020.4844 3468.3359 2026.2891 3467.9141 2031.6563 3470.4609 2032.5 3472.9922 2033.3047 3477.5625 2029.3125 3480.625 2023.5156 3483.7031 2017.7344 3484.1484 2012.3828 3481.5781 2011.5391 Z" fill="#ffcc4f"/>
<defs>
<linearGradient id="_Fill26" gradientUnits="userSpaceOnUse" x1="3476.7656" y1="2029.8828" x2="3492.8594" y2="2022.5156" spreadMethod="pad">
<stop offset="0" stop-color="#fff5e1"/>
<stop offset="1" stop-color="#c08200"/>
</linearGradient>
</defs>
<path d="M3491.3516 2021.7656 3479.75 2015.0938 C3478.2969 2014.6641 3475.4531 2017.4297 3473.3828 2021.2734 3471.3438 2025.0859 3470.8438 2028.5469 3472.3047 2028.9453 L3483.4766 2035.3516 C3487.3203 2037.5469 3492.125 2036.3203 3494.3359 2032.4609 3496.5547 2028.6016 3495.1797 2023.9766 3491.3516 2021.7656 Z" fill="url(#_Fill26)"/>
<path d="M3490.2031 2023.3438 3479.2734 2017.0625 C3478 2016.6719 3475.5859 2019.4688 3474.1641 2022.2422 3473.0859 2024.6328 3472.9922 2024.6797 3472.7188 2026.7734" fill="none"/>
</g>
<g>
<path d="M3482.8359 1985.6875 C3480.3125 1984.8594 3475.7422 1988.875 3472.6719 1994.6563 3469.5859 2000.4609 3469.1563 2005.8203 3471.7109 2006.6406 3474.2578 2007.4922 3478.8281 2003.4688 3481.8828 1997.6719 3484.9688 1991.875 3485.3828 1986.5078 3482.8359 1985.6875 Z" fill="#ffcc4f"/>
<defs>
<linearGradient id="_Fill27" gradientUnits="userSpaceOnUse" x1="3478.0156" y1="2004.0313" x2="3494.1172" y2="1996.6719" spreadMethod="pad">
<stop offset="0" stop-color="#fff5e1"/>
<stop offset="1" stop-color="#c08200"/>
</linearGradient>
</defs>
<path d="M3492.6094 1995.8906 3481.0156 1989.25 C3479.5625 1988.8281 3476.7266 1991.5859 3474.6563 1995.4141 3472.5938 1999.2578 3472.1094 2002.7031 3473.5469 2003.0938 L3484.7422 2009.5 C3488.5938 2011.7266 3493.3906 2010.4531 3495.6016 2006.625 3497.8125 2002.7656 3496.4531 1998.1172 3492.6094 1995.8906 Z" fill="url(#_Fill27)"/>
<path d="M3491.4609 1997.5 3480.5313 1991.2109 C3479.2266 1990.8594 3476.8594 1993.6406 3475.4063 1996.3828 3474.3438 1998.7656 3474.2578 1998.8125 3473.9766 2000.9141" fill="none"/>
</g>
<g>
<path d="M3479.1484 1966.9063 C3476.6016 1966.0703 3472.0391 1970.0781 3468.9609 1975.8672 3465.8828 1981.6641 3465.4375 1987.0313 3468.0078 1987.875 3470.5469 1988.7109 3475.1172 1984.6953 3478.1797 1978.9219 3481.2656 1973.1016 3481.6953 1967.7422 3479.1484 1966.9063 Z" fill="#ffcc4f"/>
<defs>
<linearGradient id="_Fill28" gradientUnits="userSpaceOnUse" x1="3474.3047" y1="1985.2578" x2="3490.3906" y2="1977.8828" spreadMethod="pad">
<stop offset="0" stop-color="#fff5e1"/>
<stop offset="1" stop-color="#c08200"/>
</linearGradient>
</defs>
<path d="M3488.8984 1977.125 3477.3125 1970.4531 C3475.8438 1970.0547 3472.9922 1972.8438 3470.9531 1976.6406 3468.875 1980.4609 3468.375 1983.9141 3469.8281 1984.3438 L3481.0156 1990.7109 C3484.8906 1992.9219 3489.6797 1991.6719 3491.8906 1987.8438 3494.1016 1983.9766 3492.75 1979.3516 3488.8984 1977.125 Z" fill="url(#_Fill28)"/>
<path d="M3487.7344 1978.7344 3476.8047 1972.4375 C3475.5234 1972.0547 3473.1328 1974.8438 3471.7109 1977.6016 3470.6328 1980 3470.5313 1980.0703 3470.2578 1982.125" fill="none"/>
</g>
<g>
<path d="M3470.4844 1954.5938 C3467.9297 1953.7813 3463.375 1957.7891 3460.3125 1963.5469 3457.2188 1969.3516 3456.7891 1974.7422 3459.3516 1975.5625 3461.8906 1976.3984 3466.4531 1972.3984 3469.5313 1966.6016 3472.6094 1960.7891 3473.0234 1955.4297 3470.4844 1954.5938 Z" fill="#ffcc4f"/>
<defs>
<linearGradient id="_Fill29" gradientUnits="userSpaceOnUse" x1="3465.6563" y1="1972.9531" x2="3481.7344" y2="1965.6094" spreadMethod="pad">
<stop offset="0" stop-color="#fff5e1"/>
<stop offset="1" stop-color="#c08200"/>
</linearGradient>
</defs>
<path d="M3480.2266 1964.8281 3468.6563 1958.1328 C3467.2109 1957.75 3464.3438 1960.5078 3462.2813 1964.3281 3460.2109 1968.1563 3459.7266 1971.6016 3461.1953 1972.0234 L3472.3516 1978.4141 C3476.2109 1980.6328 3481 1979.3672 3483.2344 1975.5391 3485.4297 1971.6875 3484.0703 1967.0469 3480.2266 1964.8281 Z" fill="url(#_Fill29)"/>
<path d="M3479.1016 1966.4297 3468.1406 1960.1172 C3466.875 1959.7656 3464.4844 1962.5469 3463.0391 1965.3203 3461.9844 1967.7031 3461.8672 1967.7422 3461.6094 1969.8281" fill="none"/>
</g>
<g>
<path d="M3457.6641 1949.5156 C3455.1094 1948.7109 3450.5547 1952.7031 3447.5 1958.5 3444.4219 1964.2813 3443.9922 1969.6641 3446.5469 1970.4922 3449.0703 1971.3281 3453.6484 1967.2891 3456.7266 1961.5234 3459.8047 1955.7344 3460.1953 1950.3672 3457.6641 1949.5156 Z" fill="#ffcc4f"/>
<defs>
<linearGradient id="_Fill30" gradientUnits="userSpaceOnUse" x1="3452.8359" y1="1967.8906" x2="3468.9141" y2="1960.5156" spreadMethod="pad">
<stop offset="0" stop-color="#fff5e1"/>
<stop offset="1" stop-color="#c08200"/>
</linearGradient>
</defs>
<path d="M3467.4141 1959.7656 3455.8438 1953.0859 C3454.375 1952.6953 3451.5313 1955.4297 3449.4766 1959.2813 3447.4141 1963.0859 3446.9063 1966.5391 3448.375 1966.9844 L3459.5469 1973.3281 C3463.4141 1975.5625 3468.1875 1974.3047 3470.4141 1970.4453 3472.6328 1966.6016 3471.2422 1961.9922 3467.4141 1959.7656 Z" fill="url(#_Fill30)"/>
<path d="M3466.2813 1961.3281 3455.3359 1955.0703 C3454.0469 1954.6797 3451.6719 1957.4688 3450.2344 1960.2578 3449.1641 1962.625 3449.0703 1962.6797 3448.7891 1964.7656" fill="none"/>
</g>
<g>
<path d="M3440.5391 1951.4531 C3437.9766 1950.6016 3433.4219 1954.6094 3430.3516 1960.3984 3427.2734 1966.2031 3426.8516 1971.5703 3429.3906 1972.4063 3431.9453 1973.2422 3436.5 1969.2266 3439.5703 1963.4531 3442.6406 1957.6328 3443.0859 1952.2734 3440.5391 1951.4531 Z" fill="#ffcc4f"/>
<defs>
<linearGradient id="_Fill31" gradientUnits="userSpaceOnUse" x1="3435.6953" y1="1969.7891" x2="3451.7891" y2="1962.4063" spreadMethod="pad">
<stop offset="0" stop-color="#fff5e1"/>
<stop offset="1" stop-color="#c08200"/>
</linearGradient>
</defs>
<path d="M3450.2734 1961.6641 3438.6875 1954.9922 C3437.2266 1954.5938 3434.4063 1957.3672 3432.3359 1961.1875 3430.2656 1965.0078 3429.7891 1968.4453 3431.2422 1968.8828 L3442.4219 1975.25 C3446.2656 1977.4688 3451.0625 1976.2266 3453.2734 1972.375 3455.4922 1968.5078 3454.1328 1963.9063 3450.2734 1961.6641 Z" fill="url(#_Fill31)"/>
<path d="M3449.1406 1963.2656 3438.1953 1956.9609 C3436.9297 1956.5859 3434.5313 1959.375 3433.0938 1962.1641 3432.0078 1964.5313 3431.9453 1964.5859 3431.6719 1966.6797" fill="none"/>
</g>
<g>
<path d="M3421 1961.0078 C3418.4688 1960.1406 3413.8828 1964.1641 3410.8125 1969.9531 3407.7422 1975.7578 3407.3203 1981.1094 3409.8516 1981.9375 3412.4141 1982.7813 3416.9688 1978.7578 3420.0391 1973 3423.1328 1967.1875 3423.5469 1961.8281 3421 1961.0078 Z" fill="#ffcc4f"/>
<defs>
<linearGradient id="_Fill32" gradientUnits="userSpaceOnUse" x1="3416.1719" y1="1979.3438" x2="3432.2656" y2="1971.9688" spreadMethod="pad">
<stop offset="0" stop-color="#fff5e1"/>
<stop offset="1" stop-color="#c08200"/>
</linearGradient>
</defs>
<path d="M3430.7422 1971.2188 3419.1953 1964.5313 C3417.7031 1964.1172 3414.8672 1966.8984 3412.7891 1970.7109 3410.7344 1974.5781 3410.25 1977.9844 3411.7031 1978.4141 L3422.8984 1984.7891 C3426.7344 1987 3431.5156 1985.7422 3433.75 1981.8984 3435.9531 1978.0781 3434.6016 1973.4063 3430.7422 1971.2188 Z" fill="url(#_Fill32)"/>
<path d="M3429.6016 1972.7891 3418.6719 1966.5156 C3417.3828 1966.1484 3415 1968.9141 3413.5469 1971.6875 3412.5234 1974.0859 3412.4141 1974.1328 3412.1406 1976.2109" fill="none"/>
</g>
<g>
<path d="M3399.5078 1977.6563 C3396.9688 1976.8125 3392.3906 1980.8203 3389.3516 1986.6172 3386.2734 1992.3984 3385.8203 1997.7891 3388.3672 1998.6094 3390.9219 1999.4375 3395.4922 1995.4219 3398.5781 1989.6563 3401.6406 1983.8672 3402.0469 1978.4688 3399.5078 1977.6563 Z" fill="#ffcc4f"/>
<defs>
<linearGradient id="_Fill33" gradientUnits="userSpaceOnUse" x1="3394.6875" y1="1996.0078" x2="3410.7813" y2="1988.625" spreadMethod="pad">
<stop offset="0" stop-color="#fff5e1"/>
<stop offset="1" stop-color="#c08200"/>
</linearGradient>
</defs>
<path d="M3409.2734 1987.8828 3397.6875 1981.2031 C3396.2422 1980.7891 3393.375 1983.5313 3391.3281 1987.3984 3389.2578 1991.2109 3388.7578 1994.6563 3390.2188 1995.0938 L3401.4219 2001.4609 C3405.2344 2003.6797 3410.0625 2002.4297 3412.2578 1998.5625 3414.4922 1994.7188 3413.125 1990.1094 3409.2734 1987.8828 Z" fill="url(#_Fill33)"/>
<path d="M3408.1094 1989.4688 3397.2031 1983.1875 C3395.8984 1982.7969 3393.5313 1985.6094 3392.0781 1988.3672 3391.0078 1990.7344 3390.9063 1990.7891 3390.6484 1992.8672" fill="none"/>
</g>
<g>
<path d="M3378.0313 2000.4453 C3375.4766 1999.5859 3370.9297 2003.6016 3367.8516 2009.3984 3364.7734 2015.1875 3364.3438 2020.5703 3366.8828 2021.3906 3369.4531 2022.2188 3374.0078 2018.2031 3377.0625 2012.4141 3380.1406 2006.6328 3380.5781 2001.2656 3378.0313 2000.4453 Z" fill="#ffcc4f"/>
<defs>
<linearGradient id="_Fill34" gradientUnits="userSpaceOnUse" x1="3373.1953" y1="2018.7891" x2="3389.2813" y2="2011.3984" spreadMethod="pad">
<stop offset="0" stop-color="#fff5e1"/>
<stop offset="1" stop-color="#c08200"/>
</linearGradient>
</defs>
<path d="M3387.7891 2010.6563 3376.1953 2003.9844 C3374.7344 2003.5547 3371.8828 2006.3203 3369.8203 2010.1484 3367.7578 2013.9922 3367.2891 2017.4297 3368.7344 2017.8438 L3379.9141 2024.2266 C3383.7578 2026.4453 3388.5469 2025.1953 3390.7578 2021.3438 3392.9922 2017.5078 3391.6094 2012.875 3387.7891 2010.6563 Z" fill="url(#_Fill34)"/>
<path d="M3386.6406 2012.2344 3375.6875 2005.9609 C3374.4141 2005.5938 3372.0234 2008.3516 3370.5781 2011.1406 3369.5469 2013.5391 3369.4219 2013.5703 3369.1406 2015.6563" fill="none"/>
</g>
<g>
<path d="M3352.6797 2204.2109 C3350.1328 2203.3984 3345.5859 2207.4063 3342.5078 2213.2109 3339.4297 2218.9688 3338.9844 2224.3594 3341.5313 2225.1875 3344.0703 2226.0234 3348.6641 2222 3351.7266 2216.2266 3354.8047 2210.4375 3355.2266 2205.0625 3352.6797 2204.2109 Z" fill="#ffcc4f"/>
<defs>
<linearGradient id="_Fill35" gradientUnits="userSpaceOnUse" x1="3347.8516" y1="2222.5703" x2="3363.9297" y2="2215.2188" spreadMethod="pad">
<stop offset="0" stop-color="#fff5e1"/>
<stop offset="1" stop-color="#c08200"/>
</linearGradient>
</defs>
<path d="M3362.4141 2214.4609 3350.8438 2207.7813 C3349.4063 2207.375 3346.5391 2210.1484 3344.4922 2213.9688 3342.4063 2217.7813 3341.9141 2221.2422 3343.3984 2221.6563 L3354.5625 2228.0547 C3358.4219 2230.2578 3363.2109 2229 3365.4141 2225.1563 3367.6484 2221.2969 3366.2891 2216.6797 3362.4141 2214.4609 Z" fill="url(#_Fill35)"/>
<path d="M3361.2891 2216.0313 3350.3594 2209.7734 C3349.0703 2209.375 3346.6641 2212.1719 3345.2422 2214.9375 3344.1875 2217.3125 3344.0703 2217.3828 3343.8047 2219.4531" fill="none"/>
</g>
<g>
<path d="M3335.6641 2208.0469 C3333.125 2207.2109 3328.5859 2211.2344 3325.5 2217.0078 3322.4141 2222.8047 3322.0078 2228.1719 3324.5078 2229.0078 3327.0703 2229.8516 3331.6563 2225.8359 3334.7188 2220.0313 3337.8047 2214.2422 3338.2188 2208.8828 3335.6641 2208.0469 Z" fill="#ffcc4f"/>
<defs>
<linearGradient id="_Fill36" gradientUnits="userSpaceOnUse" x1="3330.8438" y1="2226.3828" x2="3346.9375" y2="2219.0234" spreadMethod="pad">
<stop offset="0" stop-color="#fff5e1"/>
<stop offset="1" stop-color="#c08200"/>
</linearGradient>
</defs>
<path d="M3345.4453 2218.2891 3333.8516 2211.5938 C3332.3828 2211.1719 3329.5469 2213.9531 3327.4844 2217.7734 3325.4219 2221.6094 3324.9219 2225.0625 3326.3672 2225.4688 L3337.5625 2231.8594 C3341.4219 2234.0625 3346.2031 2232.8203 3348.4141 2228.9609 3350.6328 2225.1172 3349.2734 2220.4922 3345.4453 2218.2891 Z" fill="url(#_Fill36)"/>
<path d="M3344.2891 2219.8594 3333.3672 2213.5781 C3332.0625 2213.2109 3329.6797 2216.0078 3328.2344 2218.7578 3327.1641 2221.1328 3327.0703 2221.1875 3326.7969 2223.2734" fill="none"/>
</g>
<g>
<path d="M3321.8516 2204.9766 C3319.2891 2204.1563 3314.75 2208.1719 3311.6797 2213.9688 3308.6016 2219.7422 3308.1875 2225.1172 3310.7109 2225.9453 3313.2734 2226.7813 3317.8359 2222.7656 3320.8984 2217 3323.9766 2211.1797 3324.4141 2205.8281 3321.8516 2204.9766 Z" fill="#ffcc4f"/>
<defs>
<linearGradient id="_Fill37" gradientUnits="userSpaceOnUse" x1="3317.0156" y1="2223.3359" x2="3333.1172" y2="2215.9922" spreadMethod="pad">
<stop offset="0" stop-color="#fff5e1"/>
<stop offset="1" stop-color="#c08200"/>
</linearGradient>
</defs>
<path d="M3331.5859 2215.2188 3320.0234 2208.5469 C3318.5547 2208.1172 3315.7266 2210.9063 3313.6563 2214.7188 3311.5781 2218.5547 3311.1172 2222 3312.5625 2222.4219 L3323.7422 2228.8125 C3327.5938 2231.0156 3332.3828 2229.7656 3334.6016 2225.9063 3336.8125 2222.0625 3335.4531 2217.4297 3331.5859 2215.2188 Z" fill="url(#_Fill37)"/>
<path d="M3330.4609 2216.7969 3319.5469 2210.5234 C3318.25 2210.1484 3315.8516 2212.9297 3314.4141 2215.7031 3313.375 2218.0781 3313.2578 2218.1406 3312.9688 2220.2031" fill="none"/>
</g>
<g>
<path d="M3311.7422 2194.4375 C3309.1875 2193.6016 3304.6172 2197.6094 3301.5391 2203.4141 3298.4609 2209.1875 3298.0391 2214.5547 3300.5859 2215.4063 3303.125 2216.2344 3307.7109 2212.2188 3310.7656 2206.4297 3313.8594 2200.6484 3314.2891 2195.2734 3311.7422 2194.4375 Z" fill="#ffcc4f"/>
<defs>
<linearGradient id="_Fill38" gradientUnits="userSpaceOnUse" x1="3306.9063" y1="2212.7813" x2="3322.9922" y2="2205.4219" spreadMethod="pad">
<stop offset="0" stop-color="#fff5e1"/>
<stop offset="1" stop-color="#c08200"/>
</linearGradient>
</defs>
<path d="M3321.4688 2204.6641 3309.9141 2198 C3308.4375 2197.5703 3305.6094 2200.3516 3303.5313 2204.1641 3301.4844 2207.9922 3300.9766 2211.4453 3302.4453 2211.8672 L3313.6172 2218.2422 C3317.4531 2220.4688 3322.2734 2219.2031 3324.4844 2215.3672 3326.6953 2211.5078 3325.3281 2206.8906 3321.4688 2204.6641 Z" fill="url(#_Fill38)"/>
<path d="M3320.3359 2206.2422 3309.4219 2199.9688 C3308.125 2199.5859 3305.7266 2202.3906 3304.2891 2205.1563 3303.2422 2207.5234 3303.125 2207.6016 3302.875 2209.6641" fill="none"/>
</g>
<g>
<path d="M3306.4531 2176.2891 C3303.8984 2175.4375 3299.3438 2179.4531 3296.2813 2185.2344 3293.1953 2191.0469 3292.7578 2196.4141 3295.3047 2197.2422 3297.8594 2198.0625 3302.4219 2194.0469 3305.5 2188.2813 3308.5703 2182.4688 3308.9766 2177.1094 3306.4531 2176.2891 Z" fill="#ffcc4f"/>
<defs>
<linearGradient id="_Fill39" gradientUnits="userSpaceOnUse" x1="3301.625" y1="2194.6328" x2="3317.7109" y2="2187.2578" spreadMethod="pad">
<stop offset="0" stop-color="#fff5e1"/>
<stop offset="1" stop-color="#c08200"/>
</linearGradient>
</defs>
<path d="M3316.1953 2186.5078 3304.6094 2179.8281 C3303.125 2179.4063 3300.3047 2182.1797 3298.2578 2186.0078 3296.1641 2189.8281 3295.6953 2193.2891 3297.1406 2193.7109 L3308.3281 2200.0781 C3312.1875 2202.2891 3316.9688 2201.0547 3319.2031 2197.1953 3321.3906 2193.3438 3320.0234 2188.7109 3316.1953 2186.5078 Z" fill="url(#_Fill39)"/>
<path d="M3315.0469 2188.1016 3304.1016 2181.7969 C3302.8047 2181.4219 3300.4297 2184.2031 3299 2186.9844 3297.9375 2189.3672 3297.8516 2189.4219 3297.5703 2191.5156" fill="none"/>
</g>
<g>
<path d="M3307.0078 2152.4766 C3304.4375 2151.6406 3299.8828 2155.6328 3296.8125 2161.4297 3293.7422 2167.2266 3293.3125 2172.6016 3295.8594 2173.4375 3298.4063 2174.2578 3302.9609 2170.2422 3306.0391 2164.4688 3309.1094 2158.6563 3309.5156 2153.3125 3307.0078 2152.4766 Z" fill="#ffcc4f"/>
<defs>
<linearGradient id="_Fill40" gradientUnits="userSpaceOnUse" x1="3302.1719" y1="2170.8125" x2="3318.2578" y2="2163.4531" spreadMethod="pad">
<stop offset="0" stop-color="#fff5e1"/>
<stop offset="1" stop-color="#c08200"/>
</linearGradient>
</defs>
<path d="M3316.7422 2162.6953 3305.1641 2156.0234 C3303.7031 2155.6016 3300.8359 2158.3438 3298.7813 2162.2109 3296.7344 2166.0234 3296.2344 2169.4766 3297.6953 2169.8906 L3308.8828 2176.2891 C3312.7266 2178.4844 3317.5469 2177.25 3319.7266 2173.3672 3321.9688 2169.5313 3320.6094 2164.9063 3316.7422 2162.6953 Z" fill="url(#_Fill40)"/>
<path d="M3315.6016 2164.2734 3304.6641 2157.9922 C3303.3672 2157.6172 3300.9922 2160.4141 3299.5625 2163.1797 3298.4766 2165.5469 3298.3828 2165.6172 3298.1172 2167.6797" fill="none"/>
</g>
<g>
<path d="M3312.5 2122.9688 C3309.9609 2122.1172 3305.4141 2126.125 3302.3359 2131.9297 3299.2578 2137.7109 3298.8281 2143.0781 3301.3672 2143.9375 3303.9219 2144.75 3308.4844 2140.7266 3311.5391 2134.9375 3314.6328 2129.1563 3315.0469 2123.7969 3312.5 2122.9688 Z" fill="#ffcc4f"/>
<defs>
<linearGradient id="_Fill41" gradientUnits="userSpaceOnUse" x1="3307.6797" y1="2141.2969" x2="3323.7656" y2="2133.9375" spreadMethod="pad">
<stop offset="0" stop-color="#fff5e1"/>
<stop offset="1" stop-color="#c08200"/>
</linearGradient>
</defs>
<path d="M3322.25 2133.1797 3310.6719 2126.5 C3309.2188 2126.0938 3306.3594 2128.8672 3304.3047 2132.6719 3302.2344 2136.5469 3301.7422 2139.9688 3303.2031 2140.3906 L3314.3906 2146.7656 C3318.25 2148.9531 3323.0391 2147.7188 3325.25 2143.8672 3327.4453 2140.0234 3326.0938 2135.375 3322.25 2133.1797 Z" fill="url(#_Fill41)"/>
<path d="M3321.1016 2134.7578 3310.1719 2128.4844 C3308.8906 2128.1016 3306.5 2130.8984 3305.0781 2133.6563 3304 2136.0313 3303.9063 2136.1016 3303.625 2138.1797" fill="none"/>
</g>
<g>
<path d="M3323.0625 2092.0781 C3320.5234 2091.2344 3315.9688 2095.2578 3312.8906 2101.0391 3309.8125 2106.8438 3309.4063 2112.2031 3311.9375 2113.0313 3314.4766 2113.8516 3319.0625 2109.8516 3322.1094 2104.0703 3325.2266 2098.2734 3325.6094 2092.8984 3323.0625 2092.0781 Z" fill="#ffcc4f"/>
<defs>
<linearGradient id="_Fill42" gradientUnits="userSpaceOnUse" x1="3318.25" y1="2110.4141" x2="3334.3359" y2="2103.0703" spreadMethod="pad">
<stop offset="0" stop-color="#fff5e1"/>
<stop offset="1" stop-color="#c08200"/>
</linearGradient>
</defs>
<path d="M3332.8281 2102.3047 3321.2578 2095.625 C3319.7891 2095.2109 3316.9297 2097.9766 3314.8516 2101.8203 3312.8281 2105.6172 3312.3125 2109.0703 3313.7813 2109.5078 L3324.9609 2115.8984 C3328.7969 2118.1016 3333.6016 2116.8516 3335.8125 2112.9844 3338.0234 2109.1484 3336.6563 2104.5234 3332.8281 2102.3047 Z" fill="url(#_Fill42)"/>
<path d="M3331.6797 2103.8906 3320.7422 2097.6094 C3319.4531 2097.2109 3317.0859 2100.0234 3315.6484 2102.7969 3314.5703 2105.1641 3314.4766 2105.2188 3314.2031 2107.2891" fill="none"/>
</g>
<g>
<path d="M3337.9766 2060.3047 C3335.4063 2059.4766 3330.8438 2063.4844 3327.7656 2069.2813 3324.6875 2075.0703 3324.2734 2080.4375 3326.8047 2081.2891 3329.3828 2082.1172 3333.9297 2078.0859 3336.9922 2072.3281 3340.0703 2066.5313 3340.5156 2061.1484 3337.9766 2060.3047 Z" fill="#ffcc4f"/>
<defs>
<linearGradient id="_Fill43" gradientUnits="userSpaceOnUse" x1="3333.1328" y1="2078.6719" x2="3349.2188" y2="2071.2969" spreadMethod="pad">
<stop offset="0" stop-color="#fff5e1"/>
<stop offset="1" stop-color="#c08200"/>
</linearGradient>
</defs>
<path d="M3347.7109 2070.5391 3336.1172 2063.875 C3334.6641 2063.4609 3331.8359 2066.2266 3329.75 2070.0391 3327.7109 2073.875 3327.2188 2077.3359 3328.6797 2077.7578 L3339.8516 2084.1094 C3343.7031 2086.3438 3348.4922 2085.0859 3350.7031 2081.2266 3352.9141 2077.3906 3351.5625 2072.7734 3347.7109 2070.5391 Z" fill="url(#_Fill43)"/>
<path d="M3346.5625 2072.125 3335.6328 2065.8438 C3334.3672 2065.4609 3331.9609 2068.2578 3330.5078 2071.0234 3329.4375 2073.4141 3329.3828 2073.4688 3329.1094 2075.5469" fill="none"/>
</g>
<g>
<path d="M3356.1719 2029.6875 C3353.6172 2028.8672 3349.0547 2032.8906 3345.9766 2038.6719 3342.8984 2044.4531 3342.5 2049.8125 3345.0391 2050.6484 3347.5781 2051.4922 3352.1328 2047.4844 3355.2266 2041.6953 3358.2891 2035.8984 3358.7031 2030.5313 3356.1719 2029.6875 Z" fill="#ffcc4f"/>
<defs>
<linearGradient id="_Fill44" gradientUnits="userSpaceOnUse" x1="3351.3281" y1="2048.0391" x2="3367.4063" y2="2040.6875" spreadMethod="pad">
<stop offset="0" stop-color="#fff5e1"/>
<stop offset="1" stop-color="#c08200"/>
</linearGradient>
</defs>
<path d="M3365.9297 2039.9375 3354.3516 2033.2656 C3352.8672 2032.8438 3350.0156 2035.6172 3347.9531 2039.4297 3345.875 2043.2578 3345.4219 2046.7031 3346.8594 2047.125 L3358.0625 2053.5313 C3361.8906 2055.7344 3366.6797 2054.4688 3368.9063 2050.625 3371.1172 2046.7891 3369.75 2042.1484 3365.9297 2039.9375 Z" fill="url(#_Fill44)"/>
<path d="M3364.7734 2041.5078 3353.8438 2035.2422 C3352.5469 2034.8438 3350.1484 2037.6328 3348.7344 2040.4219 3347.6563 2042.7891 3347.5703 2042.8516 3347.2969 2044.9375" fill="none"/>
</g>
<defs>
<linearGradient id="_Fill45" gradientUnits="userSpaceOnUse" x1="3219.625" y1="2200.2422" x2="3352.0313" y2="1929.3438" spreadMethod="pad">
<stop offset="0" stop-color="#cccccc"/>
<stop offset="1" stop-color="#000000"/>
</linearGradient>
</defs>
<path d="M3308.2813 2044.6641 3279.7734 2082.9375 3293.8984 2091.2656 3322.9219 2052.0625 3308.2813 2044.6641 Z" fill="url(#_Fill45)"/>
<defs>
<linearGradient id="_Fill46" gradientUnits="userSpaceOnUse" x1="3363.1172" y1="2001.7422" x2="3457.0234" y2="2046.9063" spreadMethod="pad">
<stop offset="0" stop-color="#cccccc"/>
<stop offset="1" stop-color="#000000"/>
</linearGradient>
</defs>
<path d="M3301.9531 2039.4063 3309.2109 2045.1797 3323.0625 2052.5313 3316.1094 2047.3281 3301.9531 2039.4063 Z" fill="url(#_Fill46)"/>
<defs>
<linearGradient id="_Fill47" gradientUnits="userSpaceOnUse" x1="3219.625" y1="2200.2422" x2="3352.0313" y2="1929.3438" spreadMethod="pad">
<stop offset="0" stop-color="#cccccc"/>
<stop offset="1" stop-color="#000000"/>
</linearGradient>
</defs>
<path d="M3332.5547 2006.9766 3301.875 2039.5313 3316.4688 2047.7266 3346.4453 2015.3594 3332.5547 2006.9766 Z" fill="url(#_Fill47)"/>
<path d="M3328.7578 1998.0859 3343.4063 2006.5078 3346.1484 2015.1875 3332.7109 2007.0625 3328.7578 1998.0859 Z" fill="#b3b3b3"/>
<defs>
<linearGradient id="_Fill48" gradientUnits="userSpaceOnUse" x1="3219.625" y1="2200.2422" x2="3352.0313" y2="1929.3438" spreadMethod="pad">
<stop offset="0" stop-color="#cccccc"/>
<stop offset="1" stop-color="#000000"/>
</linearGradient>
</defs>
<path d="M3358.3672 1974.4609 3372.8203 1982.5469 3342.8906 2005.9922 3328.6328 1998.2422 3358.3672 1974.4609 Z" fill="url(#_Fill48)"/>
<path d="M3357.7109 1961.4844 3372.2734 1970.0547 3372.6563 1982.4688 3358.2656 1974.6094 3357.7109 1961.4844 Z" fill="#b3b3b3"/>
<defs>
<linearGradient id="_Fill49" gradientUnits="userSpaceOnUse" x1="3219.625" y1="2200.2422" x2="3352.0313" y2="1929.3438" spreadMethod="pad">
<stop offset="0" stop-color="#cccccc"/>
<stop offset="1" stop-color="#000000"/>
</linearGradient>
</defs>
<path d="M3385.4922 1947.3672 3399.5391 1955.8438 3371.8359 1969.7891 3357.7109 1961.4844 3385.4922 1947.3672 Z" fill="url(#_Fill49)"/>
<path d="M3387.7422 1932.1953 3402.1094 1940.4531 3399.7734 1956.1953 3385.4844 1947.7578 3387.7422 1932.1953 Z" fill="#b3b3b3"/>
<defs>
<linearGradient id="_Fill50" gradientUnits="userSpaceOnUse" x1="3219.625" y1="2200.2422" x2="3352.0313" y2="1929.3438" spreadMethod="pad">
<stop offset="0" stop-color="#cccccc"/>
<stop offset="1" stop-color="#000000"/>
</linearGradient>
</defs>
<path d="M3412.8906 1928.4375 3426.5547 1936.8359 3401.6172 1940.5781 3387.7422 1932.1953 3412.8906 1928.4375 Z" fill="url(#_Fill50)"/>
<defs>
<linearGradient id="_Fill51" gradientUnits="userSpaceOnUse" x1="3363.1172" y1="2001.7422" x2="3457.0234" y2="2046.9063" spreadMethod="pad">
<stop offset="0" stop-color="#cccccc"/>
<stop offset="1" stop-color="#000000"/>
</linearGradient>
</defs>
<path d="M3417.4766 1911.1875 3431.4922 1919.7266 3426.25 1936.6484 3412.7188 1928.6953 3417.4766 1911.1875 Z" fill="url(#_Fill51)"/>
<defs>
<linearGradient id="_Fill52" gradientUnits="userSpaceOnUse" x1="3219.625" y1="2200.2422" x2="3352.0313" y2="1929.3438" spreadMethod="pad">
<stop offset="0" stop-color="#cccccc"/>
<stop offset="1" stop-color="#000000"/>
</linearGradient>
</defs>
<path d="M3450.8828 1927.0313 3436.25 1917.7969 3417.1172 1911.7578 3431.4609 1920.1406 3450.8828 1927.0313 Z" fill="url(#_Fill52)"/>
<defs>
<linearGradient id="_Fill53" gradientUnits="userSpaceOnUse" x1="3363.1172" y1="2001.7422" x2="3457.0234" y2="2046.9063" spreadMethod="pad">
<stop offset="0" stop-color="#cccccc"/>
<stop offset="1" stop-color="#000000"/>
</linearGradient>
</defs>
<path d="M3443.5703 1900.4922 3457.9531 1908.3125 3450.5938 1926.4531 3436.4063 1917.875 3443.5703 1900.4922 Z" fill="url(#_Fill53)"/>
<defs>
<linearGradient id="_Fill54" gradientUnits="userSpaceOnUse" x1="3363.1172" y1="2001.7422" x2="3457.0234" y2="2046.9063" spreadMethod="pad">
<stop offset="0" stop-color="#cccccc"/>
<stop offset="1" stop-color="#000000"/>
</linearGradient>
</defs>
<path d="M3466.6563 1899.9063 3480.6797 1908.375 3471.2266 1925.5078 3460.5547 1911.2734 3466.6563 1899.9063 Z" fill="url(#_Fill54)"/>
<g>
<path d="M3463.0391 2071.5781 C3460.4922 2070.7344 3455.9375 2074.7656 3452.8672 2080.5469 3449.7891 2086.3125 3449.3594 2091.6875 3451.9141 2092.5313 3454.4688 2093.3594 3459.0234 2089.3438 3462.1016 2083.5781 3465.1563 2077.7656 3465.5781 2072.4063 3463.0391 2071.5781 Z" fill="#ffcc4f"/>
<defs>
<linearGradient id="_Fill55" gradientUnits="userSpaceOnUse" x1="3458.2031" y1="2089.9219" x2="3474.3047" y2="2082.5547" spreadMethod="pad">
<stop offset="0" stop-color="#fff5e1"/>
<stop offset="1" stop-color="#c08200"/>
</linearGradient>
</defs>
<path d="M3472.7969 2081.7891 3461.2109 2075.125 C3459.7422 2074.7109 3456.9063 2077.4844 3454.8594 2081.3047 3452.7813 2085.1406 3452.2969 2088.5703 3453.75 2089.0078 L3464.9219 2095.3906 C3468.7813 2097.6094 3473.5703 2096.3438 3475.7891 2092.4922 3478.0078 2088.6563 3476.6328 2084.0078 3472.7969 2081.7891 Z" fill="url(#_Fill55)"/>
<path d="M3471.6563 2083.3906 3460.7188 2077.1094 C3459.4297 2076.7266 3457.0547 2079.5078 3455.6016 2082.2891 3454.5391 2084.6406 3454.4688 2084.7266 3454.1875 2086.8047" fill="none"/>
</g>
<g>
<path d="M3162.7109 1810.3516 C3162.7109 1818.1328 3232.9766 1824.4531 3319.6797 1824.4531 3406.3906 1824.4531 3487.1016 1819.8516 3487.1016 1812.0547 3487.1016 1804.2813 3406.3906 1796.2422 3319.6797 1796.2422 3232.9766 1796.2422 3162.7109 1802.5625 3162.7109 1810.3516 Z" fill="#ffffff"/>
<path d="M3165.8438 1810.3672 C3165.8438 1802.8984 3234.875 1796.8359 3320.0547 1796.8359 3405.2422 1796.8359 3484.1016 1804.5156 3484.1016 1811.9688 3484.1016 1819.4531 3405.2422 1823.8906 3320.0547 1823.8906 3234.875 1823.8906 3165.8438 1817.8359 3165.8438 1810.3672 Z" fill="#f8f8f8"/>
<path d="M3168.9844 1810.3828 C3168.9844 1803.2344 3236.7734 1797.4297 3320.4297 1797.4297 3404.0859 1797.4297 3481.0938 1804.75 3481.0938 1811.8828 3481.0938 1819.0469 3404.0859 1823.3359 3320.4297 1823.3359 3236.7734 1823.3359 3168.9844 1817.5313 3168.9844 1810.3828 Z" fill="#f0f0f0"/>
<path d="M3172.1172 1810.3984 C3172.1172 1803.5703 3238.6797 1798.0234 3320.8047 1798.0234 3402.9375 1798.0234 3478.0938 1804.9844 3478.0938 1811.8047 3478.0938 1818.6484 3402.9375 1822.7734 3320.8047 1822.7734 3238.6797 1822.7734 3172.1172 1817.2344 3172.1172 1810.3984 Z" fill="#e9e9e9"/>
<path d="M3175.2578 1810.4141 C3175.2578 1803.9063 3240.5781 1798.6172 3321.1797 1798.6172 3401.7813 1798.6172 3475.0859 1805.2188 3475.0859 1811.7188 3475.0859 1818.2422 3401.7813 1822.2188 3321.1797 1822.2188 3240.5781 1822.2188 3175.2578 1816.9297 3175.2578 1810.4141 Z" fill="#e1e1e1"/>
<path d="M3178.3906 1810.4375 C3178.3906 1804.2344 3242.4766 1799.2109 3321.5547 1799.2109 3400.6328 1799.2109 3472.0859 1805.4531 3472.0859 1811.6328 3472.0859 1817.8438 3400.6328 1821.6563 3321.5547 1821.6563 3242.4766 1821.6563 3178.3906 1816.6328 3178.3906 1810.4375 Z" fill="#dadada"/>
<path d="M3181.5313 1810.4531 C3181.5313 1804.5703 3244.375 1799.8047 3321.9297 1799.8047 3399.4766 1799.8047 3469.0859 1805.6875 3469.0859 1811.5469 3469.0859 1817.4453 3399.4766 1821.0938 3321.9297 1821.0938 3244.375 1821.0938 3181.5313 1816.3281 3181.5313 1810.4531 Z" fill="#d2d2d2"/>
<path d="M3184.6641 1810.4688 C3184.6641 1804.9063 3246.2813 1800.3984 3322.3047 1800.3984 3398.3281 1800.3984 3466.0781 1805.9219 3466.0781 1811.4688 3466.0781 1817.0391 3398.3281 1820.5391 3322.3047 1820.5391 3246.2813 1820.5391 3184.6641 1816.0313 3184.6641 1810.4688 Z" fill="#cbcbcb"/>
<path d="M3187.8047 1810.4844 C3187.8047 1805.2422 3248.1797 1800.9922 3322.6797 1800.9922 3397.1719 1800.9922 3463.0781 1806.1563 3463.0781 1811.3828 3463.0781 1816.6406 3397.1719 1819.9766 3322.6797 1819.9766 3248.1797 1819.9766 3187.8047 1815.7266 3187.8047 1810.4844 Z" fill="#c3c3c3"/>
<path d="M3190.9375 1810.5 C3190.9375 1805.5781 3250.0781 1801.5781 3323.0469 1801.5781 3396.0234 1801.5781 3460.0703 1806.3828 3460.0703 1811.2969 3460.0703 1816.2344 3396.0234 1819.4219 3323.0469 1819.4219 3250.0781 1819.4219 3190.9375 1815.4297 3190.9375 1810.5 Z" fill="#bcbcbc"/>
<path d="M3194.0781 1810.5156 C3194.0781 1805.9141 3251.9766 1802.1719 3323.4219 1802.1719 3394.8672 1802.1719 3457.0703 1806.6172 3457.0703 1811.2109 3457.0703 1815.8359 3394.8672 1818.8594 3323.4219 1818.8594 3251.9766 1818.8594 3194.0781 1815.125 3194.0781 1810.5156 Z" fill="#b4b4b4"/>
<path d="M3197.2109 1810.5313 C3197.2109 1806.25 3253.8828 1802.7656 3323.7969 1802.7656 3393.7188 1802.7656 3454.0703 1806.8516 3454.0703 1811.1328 3454.0703 1815.4297 3393.7188 1818.3047 3323.7969 1818.3047 3253.8828 1818.3047 3197.2109 1814.8281 3197.2109 1810.5313 Z" fill="#adadad"/>
<path d="M3200.3516 1810.5469 C3200.3516 1806.5859 3255.7813 1803.3594 3324.1719 1803.3594 3392.5625 1803.3594 3451.0625 1807.0859 3451.0625 1811.0469 3451.0625 1815.0313 3392.5625 1817.7422 3324.1719 1817.7422 3255.7813 1817.7422 3200.3516 1814.5234 3200.3516 1810.5469 Z" fill="#a5a5a5"/>
<path d="M3203.4844 1810.5703 C3203.4844 1806.9141 3257.6797 1803.9531 3324.5469 1803.9531 3391.4141 1803.9531 3448.0625 1807.3203 3448.0625 1810.9609 3448.0625 1814.6328 3391.4141 1817.1797 3324.5469 1817.1797 3257.6797 1817.1797 3203.4844 1814.2266 3203.4844 1810.5703 Z" fill="#9e9e9e"/>
<path d="M3206.625 1810.5859 C3206.625 1807.25 3259.5781 1804.5469 3324.9219 1804.5469 3390.2578 1804.5469 3445.0547 1807.5547 3445.0547 1810.875 3445.0547 1814.2266 3390.2578 1816.625 3324.9219 1816.625 3259.5781 1816.625 3206.625 1813.9219 3206.625 1810.5859 Z" fill="#969696"/>
<path d="M3209.7578 1810.6016 C3209.7578 1807.5859 3261.4766 1805.1406 3325.2969 1805.1406 3389.1094 1805.1406 3442.0547 1807.7891 3442.0547 1810.7969 3442.0547 1813.8281 3389.1094 1816.0625 3325.2969 1816.0625 3261.4766 1816.0625 3209.7578 1813.625 3209.7578 1810.6016 Z" fill="#8f8f8f"/>
<path d="M3212.8906 1810.6172 C3212.8906 1807.9219 3263.3828 1805.7344 3325.6719 1805.7344 3387.9609 1805.7344 3439.0547 1808.0234 3439.0547 1810.7109 3439.0547 1813.4219 3387.9609 1815.5078 3325.6719 1815.5078 3263.3828 1815.5078 3212.8906 1813.3203 3212.8906 1810.6172 Z" fill="#878787"/>
<path d="M3216.0313 1810.6328 C3216.0313 1813.0313 3265.2813 1814.9531 3326.0469 1814.9531 3386.8125 1814.9531 3436.0547 1813.0313 3436.0547 1810.6328 3436.0547 1808.2578 3386.8125 1806.3281 3326.0469 1806.3281 3265.2813 1806.3281 3216.0313 1808.2578 3216.0313 1810.6328 Z" fill="#808080"/>
</g>
</g>
</svg>
